<?xml version="1.0" standalone="no"?>
<!DOCTYPE svg PUBLIC "-//W3C//DTD SVG 20010904//EN"
 "http://www.w3.org/TR/2001/REC-SVG-20010904/DTD/svg10.dtd">
<svg version="1.0" xmlns="http://www.w3.org/2000/svg"
 width="2500.000000pt" height="2500.000000pt" viewBox="0 0 2500.000000 2500.000000"
 preserveAspectRatio="xMidYMid meet">
<metadata>
Created by potrace 1.14, written by Peter Selinger 2001-2017
</metadata>
<g transform="translate(0.000000,2500.000000) scale(0.100000,-0.100000)"
fill="#000000" stroke="none">
<path d="M6389 18643 l-24 -28 28 24 c15 14 27 26 27 28 0 8 -8 1 -31 -24z"/>
<path d="M6165 18389 c-4 -6 -5 -12 -2 -15 2 -3 7 2 10 11 7 17 1 20 -8 4z"/>
<path d="M18801 18077 c2 -1 13 -9 24 -17 19 -14 19 -14 6 3 -7 9 -18 17 -24
17 -6 0 -8 -1 -6 -3z"/>
<path d="M5769 17883 c-13 -17 -13 -17 5 -3 18 14 19 13 12 -5 -6 -16 -5 -18
5 -7 9 8 10 15 3 22 -8 8 -15 5 -25 -7z"/>
<path d="M5719 17813 c-13 -16 -12 -17 4 -4 9 7 17 15 17 17 0 8 -8 3 -21 -13z"/>
<path d="M19140 17816 c0 -2 8 -10 18 -17 15 -13 16 -12 3 4 -13 16 -21 21
-21 13z"/>
<path d="M5669 17743 c-13 -16 -12 -17 4 -4 16 13 21 21 13 21 -2 0 -10 -8
-17 -17z"/>
<path d="M19250 17716 c0 -2 8 -10 18 -17 15 -13 16 -12 3 4 -13 16 -21 21
-21 13z"/>
<path d="M19330 17636 c0 -2 8 -10 18 -17 15 -13 16 -12 3 4 -13 16 -21 21
-21 13z"/>
<path d="M19430 17526 c0 -2 8 -10 18 -17 15 -13 16 -12 3 4 -13 16 -21 21
-21 13z"/>
<path d="M5509 17503 c-29 -35 -41 -53 -36 -53 2 0 17 16 31 35 28 36 31 49 5
18z"/>
<path d="M21572 17385 c29 -44 86 -140 129 -212 42 -73 80 -129 84 -125 5 4 5
1 1 -6 -4 -7 -3 -18 2 -25 6 -7 43 -77 84 -157 372 -727 594 -1510 685 -2410
22 -221 25 -984 5 -1205 -90 -973 -315 -1740 -729 -2483 -67 -121 -198 -331
-243 -392 -15 -19 -67 -89 -116 -155 -240 -323 -568 -643 -894 -872 -753 -528
-1730 -918 -2700 -1077 -435 -72 -678 -90 -1175 -90 -414 -1 -556 6 -910 45
-1247 134 -2578 555 -3986 1259 -308 154 -373 188 -629 328 -801 438 -1339
782 -2525 1612 -745 522 -986 685 -1340 912 -628 400 -1203 702 -1719 900
-779 299 -1547 415 -2306 348 -178 -16 -205 -25 -106 -34 238 -22 596 -114
802 -206 l65 -30 -6 -62 c-3 -35 -8 -84 -11 -110 -2 -27 -2 -48 1 -48 17 0
227 -46 350 -76 804 -200 1586 -571 2525 -1197 361 -241 605 -414 1295 -923
903 -666 1476 -1061 2145 -1479 1938 -1212 3655 -1866 5290 -2014 348 -32 861
-41 1175 -21 608 39 1181 152 1760 345 138 46 252 82 254 80 5 -5 -216 -115
-401 -198 -356 -162 -770 -303 -1143 -392 -211 -50 -346 -76 -660 -125 -94
-15 -335 -38 -510 -50 -161 -12 -761 -15 -858 -6 -29 3 -95 8 -147 11 -925 57
-1989 298 -2900 658 -1229 485 -2272 1108 -4180 2497 -1362 992 -1937 1390
-2440 1692 -1020 613 -1947 968 -2850 1093 -182 25 -453 45 -605 44 l-140 -1
80 -18 c627 -145 1333 -542 1869 -1051 92 -87 96 -93 96 -134 0 -23 9 -134 20
-246 313 -3152 2248 -5927 5105 -7320 333 -162 574 -264 890 -379 1444 -521
2984 -671 4520 -439 1390 210 2724 749 3886 1570 120 84 413 305 479 360 356
299 513 442 771 705 366 371 671 736 964 1154 212 302 364 546 552 885 113
204 310 613 413 860 57 138 160 408 160 421 0 6 37 72 81 145 198 325 282 476
273 491 -4 6 -3 8 4 4 18 -11 290 556 385 804 14 36 38 97 53 135 32 84 119
340 139 410 8 28 30 106 50 175 214 747 285 1599 199 2390 -38 355 -130 822
-218 1107 -13 43 -34 111 -46 150 -12 40 -26 75 -31 79 -5 3 -7 9 -4 14 9 15
-125 376 -228 610 -88 201 -103 231 -112 223 -4 -5 -5 -3 -1 4 8 15 -65 164
-77 156 -6 -3 -7 -1 -3 5 16 26 -377 702 -404 695 -4 -1 -7 3 -6 10 2 19 -117
186 -128 180 -5 -3 -6 -1 -3 5 4 5 -26 54 -67 109 -111 146 -145 182 -84 88z"/>
<path d="M19510 17436 c0 -2 8 -10 18 -17 15 -13 16 -12 3 4 -13 16 -21 21
-21 13z"/>
<path d="M5474 17405 c-5 -13 -9 -13 -23 -3 -14 11 -14 11 -3 -4 13 -17 36
-18 49 -3 5 4 2 5 -6 0 -11 -6 -13 -4 -8 8 3 10 4 17 1 17 -2 0 -7 -7 -10 -15z"/>
<path d="M5390 17320 c-6 -11 -8 -20 -6 -20 3 0 10 9 16 20 6 11 8 20 6 20 -3
0 -10 -9 -16 -20z"/>
<path d="M5355 17259 c-4 -6 -5 -12 -2 -15 2 -3 7 2 10 11 7 17 1 20 -8 4z"/>
<path d="M19645 17249 c-4 -6 -5 -12 -2 -15 2 -3 7 2 10 11 7 17 1 20 -8 4z"/>
<path d="M5327 17224 c-3 -3 -3 -13 0 -22 4 -10 2 -13 -5 -8 -12 7 -8 -32 4
-43 4 -3 4 2 1 11 -3 10 -2 20 4 24 6 3 8 12 5 19 -3 8 0 16 7 19 7 3 8 5 1 5
-6 1 -13 -2 -17 -5z"/>
<path d="M19705 17176 c10 -14 19 -26 22 -26 7 0 -17 39 -28 46 -6 3 -3 -5 6
-20z"/>
<path d="M5296 17152 c-2 -4 -1 -14 4 -22 7 -11 9 -9 7 8 -1 24 -3 26 -11 14z"/>
<path d="M5246 17085 c-9 -26 -7 -32 5 -12 6 10 9 21 6 23 -2 3 -7 -2 -11 -11z"/>
<path d="M19755 17059 c-4 -6 -5 -12 -2 -15 2 -3 7 2 10 11 7 17 1 20 -8 4z"/>
<path d="M5240 17041 c0 -7 -5 -9 -12 -5 -7 4 -8 3 -4 -4 4 -6 2 -20 -3 -30
-7 -14 -6 -19 4 -19 8 0 12 4 9 8 -3 5 0 18 6 30 7 11 9 23 6 27 -3 3 -6 0 -6
-7z"/>
<path d="M19856 16947 c3 -10 9 -15 12 -12 3 3 0 11 -7 18 -10 9 -11 8 -5 -6z"/>
<path d="M5122 16857 c-13 -23 -16 -33 -7 -22 9 11 19 19 23 18 4 -1 8 10 8
23 1 13 1 24 0 24 0 0 -11 -19 -24 -43z"/>
<path d="M19910 16851 c0 -6 4 -13 10 -16 6 -3 7 1 4 9 -7 18 -14 21 -14 7z"/>
<path d="M5126 16813 c-6 -14 -5 -15 5 -6 7 7 10 15 7 18 -3 3 -9 -2 -12 -12z"/>
<path d="M19917 16803 c3 -7 6 -13 8 -13 2 0 5 6 8 13 3 8 -1 14 -8 14 -7 0
-11 -6 -8 -14z"/>
<path d="M5085 16788 c-2 -7 -3 -22 -2 -33 1 -11 -4 -20 -12 -20 -8 0 -16 -7
-18 -15 -4 -13 -3 -13 6 0 9 13 11 13 11 0 0 -10 4 -9 14 6 8 11 13 32 13 47
-2 30 -5 34 -12 15z"/>
<path d="M19925 16769 c-4 -6 -5 -12 -2 -15 2 -3 7 2 10 11 7 17 1 20 -8 4z"/>
<path d="M5086 16705 c-9 -26 -7 -32 5 -12 6 10 9 21 6 23 -2 3 -7 -2 -11 -11z"/>
<path d="M5037 16677 c-3 -7 3 -13 14 -13 13 0 15 3 7 13 -6 7 -12 13 -13 13
-2 0 -5 -6 -8 -13z"/>
<path d="M20005 16649 c-4 -6 -5 -12 -2 -15 2 -3 7 2 10 11 7 17 1 20 -8 4z"/>
<path d="M16990 16646 c0 -2 7 -7 16 -10 8 -3 12 -2 9 4 -6 10 -25 14 -25 6z"/>
<path d="M5107 16609 c7 -7 15 -10 18 -7 3 3 -2 9 -12 12 -14 6 -15 5 -6 -5z"/>
<path d="M20030 16601 c0 -6 4 -13 10 -16 6 -3 7 1 4 9 -7 18 -14 21 -14 7z"/>
<path d="M4985 16592 c3 -3 0 -11 -6 -18 -7 -9 -7 -19 0 -33 17 -30 13 -36 -9
-16 -20 18 -21 18 -14 0 6 -14 4 -16 -7 -10 -8 4 -11 4 -6 0 4 -5 17 -9 28
-10 26 -2 47 38 31 58 -8 9 -8 17 -1 24 6 6 5 10 -6 10 -8 0 -13 -3 -10 -5z
m15 -57 c0 -5 -5 -3 -10 5 -5 8 -10 20 -10 25 0 6 5 3 10 -5 5 -8 10 -19 10
-25z"/>
<path d="M20080 16522 c0 -7 -4 -10 -10 -7 -6 3 -7 -1 -3 -10 5 -13 7 -14 14
-3 6 9 9 6 10 -12 1 -17 3 -19 6 -8 2 10 0 25 -6 35 -6 11 -11 13 -11 5z"/>
<path d="M4927 16477 c-3 -7 3 -13 14 -13 13 0 15 3 7 13 -6 7 -12 13 -13 13
-2 0 -5 -6 -8 -13z"/>
<path d="M4931 16434 c0 -11 3 -14 6 -6 3 7 2 16 -1 19 -3 4 -6 -2 -5 -13z"/>
<path d="M20110 16441 c0 -6 4 -13 10 -16 6 -3 7 1 4 9 -7 18 -14 21 -14 7z"/>
<path d="M4901 16423 c4 -22 -2 -43 -10 -39 -5 4 -7 -4 -4 -16 3 -17 2 -19 -5
-10 -8 11 -10 11 -15 0 -3 -9 3 -14 18 -14 16 0 22 6 22 21 -1 11 2 30 7 43 4
14 3 22 -3 22 -6 0 -10 -3 -10 -7z"/>
<path d="M4936 16392 c-3 -5 1 -9 9 -9 8 0 12 4 9 9 -3 4 -7 8 -9 8 -2 0 -6
-4 -9 -8z"/>
<path d="M20140 16360 c0 -5 5 -10 11 -10 5 0 7 5 4 10 -3 6 -8 10 -11 10 -2
0 -4 -4 -4 -10z"/>
<path d="M4895 16320 c3 -5 8 -10 11 -10 2 0 4 5 4 10 0 6 -5 10 -11 10 -5 0
-7 -4 -4 -10z"/>
<path d="M4931 16317 c-8 -10 -7 -14 2 -14 8 0 14 6 14 14 0 7 -1 13 -2 13 -2
0 -8 -6 -14 -13z"/>
<path d="M4843 16305 c-3 -9 -3 -19 1 -22 3 -4 6 1 6 10 0 8 8 18 18 20 16 4
16 5 -1 6 -10 0 -20 -6 -24 -14z"/>
<path d="M20150 16271 c0 -6 4 -12 8 -15 5 -3 9 1 9 9 0 8 -4 15 -9 15 -4 0
-8 -4 -8 -9z"/>
<path d="M4844 16247 c1 -11 7 -22 14 -23 7 -1 8 0 2 3 -5 2 -10 9 -10 14 0 6
4 8 8 5 5 -3 9 1 9 8 0 7 -6 13 -12 13 -7 0 -12 -9 -11 -20z"/>
<path d="M20190 16219 c0 -5 5 -7 10 -4 6 3 10 8 10 11 0 2 -4 4 -10 4 -5 0
-10 -5 -10 -11z"/>
<path d="M4804 16205 c5 -11 9 -25 9 -31 0 -6 6 -11 13 -11 7 0 12 5 11 11 -1
6 4 10 11 8 10 -2 10 2 2 18 -12 23 -22 27 -14 5 8 -20 -1 -19 -22 3 -17 16
-17 16 -10 -3z"/>
<path d="M4871 16194 c0 -11 3 -14 6 -6 3 7 2 16 -1 19 -3 4 -6 -2 -5 -13z"/>
<path d="M4833 16135 c0 -8 4 -12 9 -9 5 3 6 10 3 15 -9 13 -12 11 -12 -6z"/>
<path d="M4763 16073 c11 -25 22 -29 32 -13 4 6 1 9 -6 8 -6 -2 -14 3 -17 11
-2 8 0 11 6 7 6 -3 13 -3 16 2 2 4 -6 8 -19 8 -20 0 -22 -3 -12 -23z"/>
<path d="M17840 16076 c0 -2 8 -10 18 -17 15 -13 16 -12 3 4 -13 16 -21 21
-21 13z"/>
<path d="M20260 16046 c0 -8 4 -17 9 -20 5 -4 7 3 4 14 -6 23 -13 26 -13 6z"/>
<path d="M4742 16019 c0 -18 -6 -37 -12 -43 -9 -8 -11 -3 -6 24 l6 35 -13 -30
c-7 -16 -11 -40 -9 -53 4 -23 5 -23 23 -3 17 18 29 84 18 96 -3 3 -6 -9 -7
-26z"/>
<path d="M4774 16016 c-10 -8 -16 -17 -13 -20 3 -3 14 3 24 14 21 23 17 26
-11 6z"/>
<path d="M20270 15991 c0 -6 4 -13 10 -16 6 -3 7 1 4 9 -7 18 -14 21 -14 7z"/>
<path d="M4764 15973 c4 -7 2 -13 -3 -13 -17 0 -13 -17 5 -24 10 -4 13 -2 8 6
-5 7 -2 9 8 6 9 -4 15 0 15 8 0 8 -3 12 -5 9 -3 -3 -12 1 -20 8 -13 9 -14 9
-8 0z"/>
<path d="M20275 15949 c-4 -6 -5 -12 -2 -15 2 -3 7 2 10 11 7 17 1 20 -8 4z"/>
<path d="M4676 15913 c-6 -14 -5 -15 5 -6 7 7 10 15 7 18 -3 3 -9 -2 -12 -12z"/>
<path d="M4715 15910 c-2 -3 5 -6 15 -7 11 -1 22 2 24 5 3 4 -4 8 -15 8 -11 0
-22 -3 -24 -6z"/>
<path d="M4780 15910 c-9 -6 -10 -10 -3 -10 6 0 15 5 18 10 8 12 4 12 -15 0z"/>
<path d="M4685 15890 c-7 -12 23 -65 32 -56 3 3 -2 13 -11 22 -10 9 -15 23
-12 30 6 16 0 19 -9 4z"/>
<path d="M4652 15850 c-14 -38 -7 -55 7 -19 9 21 10 22 11 4 1 -11 4 -15 6 -9
3 6 1 21 -4 34 -9 23 -9 23 -20 -10z"/>
<path d="M20312 15840 c0 -17 3 -28 8 -25 5 3 7 15 5 27 -7 32 -12 31 -13 -2z"/>
<path d="M18101 15846 c-8 -10 -9 -16 -1 -21 5 -3 10 -5 11 -3 4 18 7 38 4 38
-1 0 -8 -6 -14 -14z"/>
<path d="M4656 15794 c-4 -9 -4 -19 -1 -22 2 -3 7 3 11 12 4 9 4 19 1 22 -2 3
-7 -3 -11 -12z"/>
<path d="M4680 15795 c0 -8 7 -15 15 -15 9 0 12 6 9 15 -4 8 -10 15 -15 15 -5
0 -9 -7 -9 -15z"/>
<path d="M16720 15806 c0 -3 9 -10 20 -16 11 -6 20 -8 20 -6 0 3 -9 10 -20 16
-11 6 -20 8 -20 6z"/>
<path d="M20331 15770 c0 -8 4 -22 9 -30 12 -18 12 -2 0 25 -6 13 -9 15 -9 5z"/>
<path d="M4615 15760 c-3 -5 -2 -18 4 -27 7 -14 9 -12 8 10 -2 30 -3 31 -12
17z"/>
<path d="M4701 15752 c-7 -13 -6 -19 2 -19 7 0 13 9 13 19 0 10 -1 18 -3 18
-1 0 -7 -8 -12 -18z"/>
<path d="M4597 15709 c-3 -13 1 -31 9 -43 14 -20 15 -19 9 18 -7 48 -11 53
-18 25z"/>
<path d="M20322 15700 c0 -19 2 -27 5 -17 2 9 2 25 0 35 -3 9 -5 1 -5 -18z"/>
<path d="M20340 15669 c0 -5 5 -7 10 -4 6 3 10 8 10 11 0 2 -4 4 -10 4 -5 0
-10 -5 -10 -11z"/>
<path d="M4587 15648 c4 -19 3 -20 -7 -8 -10 13 -11 13 -8 0 1 -8 -6 -30 -15
-48 -13 -23 -14 -31 -5 -30 7 2 15 14 18 28 4 18 11 25 28 24 12 -1 22 3 22 7
0 5 -4 9 -10 9 -5 0 -10 6 -10 14 0 8 -4 17 -9 20 -5 4 -7 -4 -4 -16z"/>
<path d="M20315 15647 c-4 -10 -5 -21 -1 -24 10 -10 18 4 13 24 -4 17 -4 17
-12 0z"/>
<path d="M16950 15636 c0 -2 8 -10 18 -17 15 -13 16 -12 3 4 -13 16 -21 21
-21 13z"/>
<path d="M18276 15608 c3 -5 10 -6 15 -3 13 9 11 12 -6 12 -8 0 -12 -4 -9 -9z"/>
<path d="M4578 15573 c-3 -22 0 -34 9 -38 8 -2 11 0 8 5 -3 6 2 10 11 10 16 0
16 1 2 13 -9 6 -18 19 -20 27 -3 8 -7 1 -10 -17z"/>
<path d="M4600 15590 c0 -5 5 -10 11 -10 5 0 7 5 4 10 -3 6 -8 10 -11 10 -2 0
-4 -4 -4 -10z"/>
<path d="M20324 15549 c-3 -6 -1 -16 5 -22 9 -9 10 -7 5 8 -7 18 -6 19 12 5
18 -14 18 -14 5 3 -16 20 -18 20 -27 6z"/>
<path d="M4498 15427 c-34 -106 -36 -113 -20 -132 16 -18 16 -19 0 -7 -14 11
-18 10 -28 -8 -6 -11 -8 -25 -5 -30 3 -5 1 -11 -5 -15 -12 -7 -14 -62 -2 -69
5 -3 7 8 4 23 -4 30 12 50 24 30 4 -8 3 -9 -4 -5 -7 4 -12 1 -12 -9 0 -8 7
-18 16 -22 12 -4 13 -8 3 -14 -10 -6 -10 -11 0 -23 9 -11 10 -16 2 -16 -6 0
-11 5 -11 10 0 6 -7 10 -15 10 -18 0 -20 -16 -4 -26 7 -4 7 -9 1 -13 -5 -3 -6
-15 -1 -26 7 -19 8 -19 8 -1 1 15 4 16 16 6 19 -16 12 -24 -24 -25 -27 -1 -27
0 -24 55 l3 55 -14 -42 c-7 -23 -11 -53 -9 -67 4 -19 1 -26 -11 -26 -9 0 -16
-5 -16 -11 0 -7 10 -5 25 5 13 9 28 16 32 16 4 0 2 -4 -6 -9 -8 -5 -9 -11 -3
-15 6 -3 18 1 26 10 9 8 16 10 16 4 0 -6 -7 -13 -16 -17 -12 -5 -13 -7 -2 -14
9 -6 6 -8 -10 -6 -12 0 -22 5 -22 9 0 4 -5 8 -11 8 -6 0 -8 -7 -5 -16 5 -13 4
-14 -7 -6 -14 12 -27 7 -27 -10 0 -5 6 -6 13 -2 10 6 10 4 0 -7 -7 -7 -13 -27
-13 -43 0 -21 -3 -27 -9 -18 -6 10 -10 9 -14 -7 -3 -12 -1 -21 4 -21 12 0 0
-48 -18 -76 -17 -26 -45 -133 -38 -144 3 -5 1 -11 -4 -14 -5 -4 -15 -32 -21
-64 -6 -31 -14 -66 -17 -77 l-5 -20 17 20 c16 19 16 19 1 -8 -9 -15 -14 -33
-10 -39 4 -6 3 -8 -4 -4 -13 8 -36 -92 -33 -149 1 -31 -1 -37 -9 -25 -9 11
-10 7 -5 -17 5 -23 3 -33 -5 -33 -8 0 -11 -10 -8 -25 3 -13 2 -22 -3 -19 -4 2
-8 -4 -7 -13 0 -10 -7 -56 -16 -103 -32 -176 -37 -228 -22 -233 6 -2 45 0 86
4 95 9 623 7 630 -3 8 -10 170 -16 170 -6 0 5 5 6 10 3 6 -4 8 -11 5 -16 -4
-5 14 -6 42 -3 38 4 45 3 33 -6 -12 -9 -6 -10 28 -6 24 4 41 3 39 -1 -3 -5 11
-9 30 -11 23 -1 32 1 27 9 -4 7 -1 10 7 7 8 -3 13 -11 11 -17 -1 -7 2 -10 8
-6 6 4 16 2 23 -3 11 -9 42 -16 122 -27 17 -2 44 -8 62 -14 26 -8 33 -6 36 7
4 15 5 15 6 1 1 -12 21 -21 67 -33 36 -9 69 -14 75 -11 5 4 9 1 9 -6 0 -7 10
-9 25 -7 14 3 25 2 25 -2 0 -7 75 -29 105 -32 6 0 20 -4 33 -9 61 -23 121 -27
133 -7 8 12 10 11 13 -11 2 -15 16 -25 16 -11 0 10 4 10 17 -1 9 -8 14 -9 10
-3 -3 6 0 11 7 11 16 0 10 -24 -7 -30 -7 -2 -4 -3 5 -2 9 2 25 -3 36 -11 11
-7 22 -11 25 -7 4 3 13 0 22 -7 10 -8 15 -9 15 -1 0 6 10 11 23 11 18 0 19 -2
7 -10 -12 -8 -10 -10 8 -10 13 0 21 -4 18 -9 -8 -13 18 -21 49 -15 17 3 24 1
20 -6 -4 -6 4 -10 19 -10 14 0 29 7 34 16 8 14 12 14 33 3 13 -7 27 -12 32
-11 4 1 6 -1 6 -5 -4 -22 3 -21 25 2 14 15 30 24 35 20 7 -4 11 7 11 30 l0 36
-75 -2 c-41 -1 -78 1 -82 5 -4 4 -6 23 -4 42 3 35 2 36 -33 33 -44 -4 -51 3
-47 47 3 35 2 36 -33 33 -44 -4 -51 3 -47 47 3 35 2 36 -33 33 -44 -4 -51 3
-47 47 3 35 2 36 -33 33 -44 -4 -51 3 -47 47 3 35 2 36 -33 33 -44 -4 -51 3
-47 47 l3 35 -76 -2 c-42 -1 -79 1 -83 5 -4 4 -6 23 -4 42 3 35 2 36 -33 33
-44 -4 -51 3 -47 47 3 35 2 36 -33 33 -44 -4 -51 3 -47 47 3 35 2 36 -33 33
-44 -4 -51 3 -47 47 3 35 2 36 -33 33 -44 -4 -51 3 -47 47 3 35 2 36 -33 33
-44 -4 -51 3 -47 47 3 35 2 36 -33 33 -44 -4 -51 3 -47 47 3 35 2 36 -33 33
-44 -4 -51 3 -47 47 3 35 2 36 -33 33 -44 -4 -51 3 -47 47 3 35 2 36 -33 33
-19 -2 -38 0 -42 4 -4 4 -6 41 -5 83 l2 76 -35 -3 c-44 -4 -51 3 -47 47 3 35
2 36 -33 33 -44 -4 -51 3 -47 47 3 35 2 36 -33 33 -44 -4 -51 3 -47 47 3 35 2
36 -33 33 -44 -4 -51 3 -47 47 3 35 2 36 -33 33 -19 -2 -38 0 -42 4 -4 4 -6
41 -5 83 l2 76 -39 -4 c-22 -2 -38 0 -36 4 3 5 -2 8 -10 8 -12 0 -13 5 -4 31
6 16 9 32 6 34 -2 2 -20 -46 -40 -108z m52 -2 c11 -13 10 -14 -3 -9 -18 7 -34
-35 -23 -62 5 -14 9 -14 24 -3 15 13 16 12 3 -3 -9 -12 -10 -18 -2 -18 13 0
15 -46 2 -54 -4 -3 -6 7 -4 22 3 23 2 24 -6 7 -9 -19 -10 -19 -10 3 -1 13 -8
31 -17 40 -15 15 -16 13 -9 -16 4 -21 3 -32 -4 -32 -6 0 -11 18 -11 41 0 28 4
38 11 33 9 -5 10 1 5 22 -4 19 -3 24 3 15 7 -11 10 -9 16 8 8 25 9 25 25 6z
m-13 -57 c-3 -8 -6 -5 -6 6 -1 11 2 17 5 13 3 -3 4 -12 1 -19z m-10 -120 c-3
-8 -6 -5 -6 6 -1 11 2 17 5 13 3 -3 4 -12 1 -19z m-47 2 c0 -5 -2 -10 -4 -10
-3 0 -8 5 -11 10 -3 6 -1 10 4 10 6 0 11 -4 11 -10z m-111 -442 c-13 -24 -12
-48 1 -28 9 13 10 13 10 0 0 -8 -4 -21 -9 -29 -7 -11 -11 -4 -17 24 -4 25 -3
40 3 42 6 2 9 14 7 26 -4 21 -4 21 5 2 5 -11 5 -27 0 -37z m-32 -10 c-3 -8 -6
-5 -6 6 -1 11 2 17 5 13 3 -3 4 -12 1 -19z m-2 -28 c3 -5 1 -10 -4 -10 -6 0
-11 5 -11 10 0 6 2 10 4 10 3 0 8 -4 11 -10z m-4 -43 c-10 -9 -11 -8 -5 6 3
10 9 15 12 12 3 -3 0 -11 -7 -18z m-44 -149 c-3 -8 -6 -5 -6 6 -1 11 2 17 5
13 3 -3 4 -12 1 -19z m16 -33 c4 -8 2 -17 -3 -20 -6 -4 -10 3 -10 14 0 25 6
27 13 6z m-10 -55 c-3 -12 -8 -19 -11 -16 -5 6 5 36 12 36 2 0 2 -9 -1 -20z
m-43 -60 c0 -5 -5 -10 -11 -10 -5 0 -7 5 -4 10 3 6 8 10 11 10 2 0 4 -4 4 -10z
m-43 -242 c-3 -7 -5 -2 -5 12 0 14 2 19 5 13 2 -7 2 -19 0 -25z m770 -334 c-3
-3 -12 -4 -19 -1 -8 3 -5 6 6 6 11 1 17 -2 13 -5z m266 -1 c-7 -2 -21 -2 -30
0 -10 3 -4 5 12 5 17 0 24 -2 18 -5z m94 1 c-3 -3 -12 -4 -19 -1 -8 3 -5 6 6
6 11 1 17 -2 13 -5z m-250 -10 c-3 -3 -12 -4 -19 -1 -8 3 -5 6 6 6 11 1 17 -2
13 -5z m166 -11 c-7 -2 -19 -2 -25 0 -7 3 -2 5 12 5 14 0 19 -2 13 -5z m37
-13 c0 -5 -8 -10 -17 -10 -15 0 -16 2 -3 10 19 12 20 12 20 0z m35 -20 c3 -5
-1 -10 -10 -10 -9 0 -13 5 -10 10 3 6 8 10 10 10 2 0 7 -4 10 -10z m331 -12
c4 -7 3 -8 -4 -4 -7 4 -12 2 -12 -3 0 -6 9 -11 20 -11 16 0 20 -6 19 -32 -1
-18 -3 -25 -6 -15 -3 10 -9 14 -16 10 -7 -4 -7 0 1 9 12 15 9 18 -22 24 -20 3
-38 10 -41 14 -3 5 3 6 14 3 10 -3 22 0 25 6 9 14 13 14 22 -1z m-84 -25 c-6
-3 -10 -9 -6 -14 3 -5 -1 -9 -9 -9 -22 0 -16 26 7 27 12 1 15 -1 8 -4z m212
-54 c-2 -4 4 -13 15 -18 14 -8 22 -7 30 3 9 11 9 15 -1 19 -7 2 1 4 17 4 17 0
24 -2 17 -4 -16 -6 -5 -23 14 -23 8 0 12 4 9 10 -4 6 1 7 11 3 13 -5 15 -3 9
7 -6 9 -4 11 5 5 10 -6 9 -11 -5 -22 -11 -7 -24 -13 -29 -13 -6 0 -4 -5 4 -11
11 -8 8 -9 -15 -4 -16 4 -41 9 -55 12 -14 2 -27 8 -28 14 -2 5 -7 7 -11 5 -4
-3 -8 1 -8 8 0 7 6 13 13 13 7 0 11 -4 8 -8z m186 -4 c7 -8 16 -13 19 -10 4 2
8 -2 8 -9 0 -11 -5 -12 -24 -3 -19 8 -26 8 -32 -2 -5 -7 -17 -11 -27 -9 -15 3
-13 7 13 18 21 10 28 17 20 22 -8 5 -8 8 -1 8 6 0 17 -7 24 -15z m-15 -45 c-3
-5 -14 -10 -23 -10 -15 0 -15 2 -2 10 20 13 33 13 25 0z m130 -41 c-4 -5 -12
-9 -18 -8 -9 0 -8 2 1 6 6 2 9 10 6 15 -4 7 -2 8 5 4 6 -4 9 -12 6 -17z m131
-6 c-10 -11 -37 -12 -30 -2 3 5 12 9 21 9 9 0 13 -3 9 -7z m-76 -10 c0 -5 -11
-8 -25 -8 -14 0 -25 3 -25 8 0 4 11 7 25 7 14 0 25 -3 25 -7z m100 -7 c0 -3
-4 -8 -10 -11 -5 -3 -10 -1 -10 4 0 6 5 11 10 11 6 0 10 -2 10 -4z m60 -46 c0
-5 -5 -10 -11 -10 -5 0 -7 5 -4 10 3 6 8 10 11 10 2 0 4 -4 4 -10z"/>
<path d="M5838 13683 c7 -3 16 -2 19 1 4 3 -2 6 -13 5 -11 0 -14 -3 -6 -6z"/>
<path d="M18360 15500 c6 -11 13 -20 16 -20 2 0 0 9 -6 20 -6 11 -13 20 -16
20 -2 0 0 -9 6 -20z"/>
<path d="M20360 15515 c0 -5 5 -17 10 -25 5 -8 10 -10 10 -5 0 6 -5 17 -10 25
-5 8 -10 11 -10 5z"/>
<path d="M17120 15475 c13 -14 26 -25 28 -25 3 0 -5 11 -18 25 -13 14 -26 25
-28 25 -3 0 5 -11 18 -25z"/>
<path d="M20395 15430 c-3 -5 1 -10 10 -10 9 0 13 5 10 10 -3 6 -8 10 -10 10
-2 0 -7 -4 -10 -10z"/>
<path d="M20400 15377 c0 -18 2 -19 11 -7 8 11 9 8 4 -13 -4 -19 -2 -26 5 -22
15 9 12 52 -5 59 -11 4 -15 -1 -15 -17z"/>
<path d="M18444 15368 c22 -33 22 -33 22 -8 0 10 -2 17 -5 15 -2 -3 -11 1 -19
8 -11 9 -11 4 2 -15z"/>
<path d="M17226 15347 c3 -10 9 -15 12 -12 3 3 0 11 -7 18 -10 9 -11 8 -5 -6z"/>
<path d="M20392 15330 c0 -14 2 -19 5 -12 2 6 2 18 0 25 -3 6 -5 1 -5 -13z"/>
<path d="M18480 15321 c0 -6 4 -13 10 -16 6 -3 7 1 4 9 -7 18 -14 21 -14 7z"/>
<path d="M20421 15295 c0 -11 4 -27 9 -35 9 -13 10 -13 9 0 0 8 -4 24 -9 35
l-9 20 0 -20z"/>
<path d="M20396 15275 c-4 -14 -2 -34 4 -45 6 -10 8 -40 6 -66 -3 -25 -2 -44
1 -40 11 11 14 98 3 111 -6 7 -8 25 -4 39 3 14 4 26 1 26 -3 0 -8 -11 -11 -25z"/>
<path d="M17280 15269 c0 -5 5 -7 10 -4 6 3 10 8 10 11 0 2 -4 4 -10 4 -5 0
-10 -5 -10 -11z"/>
<path d="M18516 15248 c3 -5 10 -6 15 -3 13 9 11 12 -6 12 -8 0 -12 -4 -9 -9z"/>
<path d="M20325 15239 c-4 -6 -5 -12 -2 -15 2 -3 7 2 10 11 7 17 1 20 -8 4z"/>
<path d="M20361 15194 c0 -11 3 -14 6 -6 3 7 2 16 -1 19 -3 4 -6 -2 -5 -13z"/>
<path d="M20432 15167 c-1 -18 2 -39 8 -47 7 -10 8 -3 5 25 -4 30 -3 35 4 20
8 -16 10 -16 10 -4 1 9 -5 21 -12 27 -10 9 -13 4 -15 -21z"/>
<path d="M20381 15174 c0 -11 3 -14 6 -6 3 7 2 16 -1 19 -3 4 -6 -2 -5 -13z"/>
<path d="M18580 15141 c0 -6 4 -13 10 -16 6 -3 7 1 4 9 -7 18 -14 21 -14 7z"/>
<path d="M20390 15100 c0 -5 5 -10 11 -10 5 0 7 5 4 10 -3 6 -8 10 -11 10 -2
0 -4 -4 -4 -10z"/>
<path d="M20439 15083 c-8 -10 -9 -14 -2 -10 7 4 16 0 22 -10 9 -16 10 -14 11
10 0 31 -11 35 -31 10z"/>
<path d="M18627 15043 c3 -7 6 -13 8 -13 2 0 5 6 8 13 3 8 -1 14 -8 14 -7 0
-11 -6 -8 -14z"/>
<path d="M20445 15009 c-4 -6 -5 -12 -2 -15 2 -3 7 2 10 11 7 17 1 20 -8 4z"/>
<path d="M18660 14985 c0 -8 4 -15 10 -15 5 0 7 7 4 15 -4 8 -8 15 -10 15 -2
0 -4 -7 -4 -15z"/>
<path d="M20471 14984 c0 -11 3 -14 6 -6 3 7 2 16 -1 19 -3 4 -6 -2 -5 -13z"/>
<path d="M20446 14935 c-4 -13 -2 -14 14 -5 23 13 26 20 6 20 -8 0 -16 -7 -20
-15z"/>
<path d="M20421 14894 c0 -11 3 -14 6 -6 3 7 2 16 -1 19 -3 4 -6 -2 -5 -13z"/>
<path d="M20472 14890 c0 -14 2 -19 5 -12 2 6 2 18 0 25 -3 6 -5 1 -5 -13z"/>
<path d="M20477 14853 c-4 -3 -7 -18 -6 -32 1 -26 1 -25 10 3 9 31 7 41 -4 29z"/>
<path d="M17510 14841 c0 -6 4 -13 10 -16 6 -3 7 1 4 9 -7 18 -14 21 -14 7z"/>
<path d="M18755 14779 c-4 -6 -5 -12 -2 -15 2 -3 7 2 10 11 7 17 1 20 -8 4z"/>
<path d="M20455 14756 c4 -16 12 -38 19 -48 11 -16 13 -12 14 27 0 25 -4 45
-8 45 -5 0 -7 -9 -5 -20 5 -27 -3 -25 -16 3 -8 19 -9 18 -4 -7z"/>
<path d="M18810 14700 c0 -5 -8 -10 -17 -10 -12 0 -14 -3 -7 -8 7 -4 14 -16
17 -27 4 -15 5 -14 6 8 0 15 6 27 11 27 6 0 10 5 10 10 0 6 -4 10 -10 10 -5 0
-10 -4 -10 -10z"/>
<path d="M20462 14680 c0 -14 2 -19 5 -12 2 6 2 18 0 25 -3 6 -5 1 -5 -13z"/>
<path d="M17600 14671 c0 -6 4 -13 10 -16 6 -3 7 1 4 9 -7 18 -14 21 -14 7z"/>
<path d="M18850 14641 c0 -6 4 -13 10 -16 6 -3 7 1 4 9 -7 18 -14 21 -14 7z"/>
<path d="M20465 14595 c-5 -35 -3 -90 4 -134 6 -41 9 -76 6 -79 -3 -3 -5 4 -5
16 0 11 -4 24 -10 27 -5 3 -10 2 -10 -4 0 -5 -9 -8 -20 -6 -36 7 -50 -5 -50
-41 0 -29 -3 -34 -24 -34 -44 0 -56 -10 -56 -46 l0 -34 -64 0 c-86 0 -96 -5
-96 -46 0 -29 -3 -34 -24 -34 -44 0 -56 -10 -56 -46 0 -29 -3 -34 -24 -34 -44
0 -56 -10 -56 -46 0 -29 -3 -34 -24 -34 -44 0 -56 -10 -56 -46 0 -29 -3 -34
-24 -34 -44 0 -56 -10 -56 -46 0 -29 -3 -34 -24 -34 -44 0 -56 -10 -56 -46 0
-29 -3 -34 -24 -34 -44 0 -56 -10 -56 -46 l0 -34 -64 0 c-86 0 -96 -5 -96 -46
0 -29 -3 -34 -24 -34 -44 0 -56 -10 -56 -46 0 -29 -3 -34 -24 -34 -44 0 -56
-10 -56 -46 l0 -34 -64 0 c-86 0 -96 -5 -96 -46 0 -29 -3 -34 -24 -34 -44 0
-56 -10 -56 -46 0 -31 -2 -34 -32 -35 -18 -1 -37 -1 -41 0 -5 1 -8 -9 -7 -21
5 -58 3 -60 -45 -55 -43 4 -45 3 -47 -22 0 -14 0 -35 1 -46 1 -11 -3 -32 -10
-46 -12 -30 -19 -189 -8 -189 4 0 10 6 12 13 3 6 6 2 6 -9 1 -12 -6 -25 -15
-28 -9 -4 -12 -11 -8 -18 5 -7 -4 -5 -18 4 -26 17 -27 17 -25 -1 1 -11 6 -17
12 -15 5 3 2 -1 -9 -10 -10 -8 -19 -27 -20 -43 -2 -15 -7 -37 -13 -48 -5 -11
-15 -40 -22 -65 -8 -25 -16 -52 -19 -60 -3 -8 -6 -22 -7 -30 -3 -28 -17 -60
-26 -60 -5 0 -9 -5 -9 -11 0 -5 5 -7 12 -3 7 4 8 3 4 -5 -4 -6 -2 -19 5 -27
10 -12 9 -13 -5 -8 -9 3 -16 11 -16 18 0 6 -9 -9 -20 -33 -11 -23 -17 -48 -13
-54 3 -6 1 -7 -5 -3 -12 7 -17 -10 -14 -49 2 -16 0 -17 -8 -5 -9 13 -10 13
-11 0 -1 -8 -1 -24 0 -35 1 -13 -1 -16 -6 -8 -5 7 -28 -27 -63 -95 -58 -112
-63 -129 -42 -124 8 1 11 -2 7 -8 -5 -8 -11 -7 -21 1 -13 10 -18 6 -15 -13 0
-5 -3 -8 -9 -8 -5 0 -14 -10 -20 -22 -11 -22 -10 -22 4 -4 9 11 16 15 16 8 0
-6 -8 -17 -17 -24 -35 -26 -82 -103 -72 -119 14 -22 11 -35 -4 -14 -13 17 -15
17 -30 -5 -9 -13 -14 -27 -11 -32 3 -5 2 -7 -3 -6 -4 2 -8 0 -8 -4 0 -4 -10
-15 -23 -23 -12 -9 -20 -21 -16 -26 4 -6 11 -6 20 2 10 8 14 8 14 0 0 -6 -5
-11 -11 -11 -5 0 -7 -6 -3 -12 6 -10 4 -10 -8 0 -14 11 -22 5 -62 -40 -46 -53
-53 -74 -23 -72 9 1 13 -4 10 -12 -7 -18 -19 -18 -27 1 -9 24 -23 17 -23 -11
0 -19 3 -24 16 -19 12 5 13 3 4 -6 -14 -14 -36 -2 -29 17 3 8 1 14 -4 14 -6 0
-10 -4 -10 -9 0 -5 -55 -64 -122 -131 -68 -68 -123 -126 -123 -129 -1 -15 -27
-51 -37 -51 -6 0 -1 11 12 25 43 46 9 26 -61 -36 -38 -34 -66 -65 -64 -70 3
-4 0 -11 -6 -15 -8 -4 -9 -3 -5 4 10 17 -9 15 -23 -1 -6 -8 -7 -17 -3 -21 4
-4 2 -6 -3 -5 -20 6 -56 -13 -51 -26 3 -8 0 -12 -7 -10 -7 3 -23 -5 -37 -16
-14 -11 -19 -17 -11 -13 9 5 12 3 7 -5 -4 -6 -11 -9 -15 -7 -4 3 -18 -2 -30
-11 -19 -12 -20 -17 -10 -25 10 -7 9 -8 -5 -4 -21 7 -96 -36 -96 -55 0 -6 -6
-9 -13 -6 -16 6 -62 -27 -62 -44 0 -7 -7 -14 -15 -16 -13 -4 -13 -3 0 6 28 20
-4 11 -45 -12 -22 -12 -41 -28 -41 -35 -1 -7 -3 -15 -4 -19 -1 -5 -2 -12 -1
-16 1 -5 -3 -6 -9 -2 -8 5 -7 11 1 21 24 29 -41 6 -91 -32 -8 -6 -26 -15 -40
-19 -14 -4 -43 -19 -65 -33 -22 -14 -42 -24 -45 -23 -10 4 -80 -32 -80 -41 0
-5 -4 -7 -9 -4 -13 8 -42 -4 -35 -15 3 -5 -2 -6 -10 -3 -18 7 -103 -35 -89
-44 6 -4 2 -15 -10 -27 -20 -20 -20 -20 -8 2 7 14 8 24 1 28 -5 3 -10 1 -10
-5 0 -7 -6 -10 -12 -7 -7 2 -21 0 -32 -5 -15 -8 -16 -12 -5 -19 9 -6 10 -9 2
-9 -6 0 -14 4 -17 9 -7 11 -76 -8 -76 -20 0 -5 -7 -5 -17 -2 -12 5 -14 3 -8
-7 5 -8 4 -11 -2 -7 -6 4 -48 -5 -94 -18 -45 -14 -91 -25 -101 -25 -11 0 -17
-3 -15 -7 3 -5 -8 -8 -24 -9 -16 -1 -39 -10 -51 -20 -12 -10 -18 -13 -13 -5 6
11 4 13 -9 8 -10 -4 -35 -10 -57 -13 -22 -4 -42 -11 -45 -15 -3 -5 -9 -7 -14
-4 -5 3 -28 1 -52 -5 -49 -12 -66 -15 -181 -30 -104 -14 -117 -18 -97 -30 13
-8 13 -10 -2 -10 -9 0 -18 5 -20 11 -3 9 -29 8 -98 0 -104 -13 -688 -19 -732
-8 -23 6 -28 4 -29 -10 0 -17 -1 -17 -8 0 -4 10 -11 19 -16 19 -6 0 -16 3 -23
6 -7 2 -25 0 -38 -7 -14 -6 -23 -7 -19 -2 6 11 -62 27 -72 17 -3 -3 -13 0 -21
7 -12 9 -16 9 -19 0 -3 -7 -9 -13 -14 -13 -6 0 -8 4 -5 9 8 13 -48 24 -75 16
-14 -5 -19 -3 -15 3 4 6 -1 11 -11 11 -19 -1 -195 35 -228 46 -16 6 -17 5 -5
-4 12 -9 10 -11 -13 -11 -16 0 -26 4 -22 10 8 12 -43 33 -62 26 -8 -3 -12 -2
-9 3 3 4 -20 16 -51 24 -43 13 -61 14 -77 5 -18 -10 -19 -9 -8 4 10 13 8 17
-20 23 -18 5 -37 9 -43 9 -5 1 -13 5 -17 10 -4 6 -23 10 -42 10 -20 0 -31 3
-25 7 6 3 -3 11 -21 18 -18 6 -36 8 -41 5 -5 -3 -9 -1 -9 3 0 13 -90 54 -101
47 -6 -3 -20 4 -31 16 -11 12 -26 19 -34 16 -8 -3 -14 -2 -14 3 0 4 -11 13
-25 19 -14 6 -25 7 -25 2 0 -5 9 -12 21 -15 27 -9 20 -16 -9 -8 -12 3 -22 13
-22 23 0 14 -23 33 -37 31 -2 0 -31 16 -65 36 -34 20 -67 36 -74 36 -6 0 -11
6 -10 13 3 23 15 27 32 13 14 -11 18 -11 30 6 8 10 14 14 14 7 0 -6 23 -18 52
-27 41 -12 54 -12 66 -2 12 9 14 9 9 0 -8 -13 4 -17 76 -27 24 -3 35 -1 31 5
-3 6 8 4 24 -5 39 -20 43 -20 36 2 -5 13 -4 14 4 3 6 -8 15 -10 22 -6 9 5 11
4 6 -3 -10 -16 4 -15 49 4 21 9 34 10 30 4 -4 -6 1 -18 11 -25 20 -15 48 -20
40 -7 -2 4 4 8 14 8 10 0 17 -3 14 -7 -2 -4 31 -10 74 -14 42 -3 88 -9 102
-11 22 -4 23 -3 5 5 -19 9 -19 10 3 10 12 1 22 -3 22 -7 0 -5 15 -9 33 -10 17
0 65 -3 106 -7 57 -4 72 -3 69 7 -4 9 8 13 44 14 55 1 56 -5 1 -17 -31 -7 -29
-7 15 -3 29 2 58 6 65 8 6 1 9 1 4 -1 -23 -13 14 -23 86 -23 87 0 125 12 97
30 -9 6 -10 10 -3 10 6 0 15 -5 19 -11 3 -6 19 -9 35 -7 15 3 26 1 24 -3 -9
-13 82 -4 100 11 15 12 19 12 29 -1 11 -15 41 -14 191 5 153 19 174 21 238 24
21 1 36 5 34 10 -3 4 22 8 56 10 33 1 65 6 71 10 6 4 25 9 41 11 17 2 32 6 35
10 3 3 18 7 34 8 16 1 33 8 38 15 5 8 8 9 8 2 0 -13 143 23 250 63 8 3 24 8
35 10 33 6 47 12 42 20 -3 5 8 8 23 9 16 1 44 8 62 16 18 9 61 28 96 43 48 21
60 31 52 41 -8 8 -8 14 0 19 6 3 8 11 5 16 -3 5 1 6 10 2 13 -4 14 -7 3 -14
-10 -6 -10 -11 0 -21 9 -9 12 -9 12 1 0 7 4 9 10 6 9 -6 59 21 71 38 3 5 10 9
15 9 16 1 54 17 54 23 0 4 -4 4 -8 1 -5 -3 -9 1 -9 9 0 11 5 12 20 3 15 -8 18
-7 12 3 -6 9 -3 11 8 6 10 -3 17 -2 17 3 0 6 6 10 14 10 8 0 37 18 65 40 28
22 53 40 57 40 13 0 123 88 117 94 -4 3 -15 -1 -25 -11 -23 -21 -23 -12 0 15
14 16 22 18 30 10 12 -12 85 47 188 154 68 71 165 185 148 175 -12 -7 -12 41
-1 60 4 6 2 13 -5 15 -8 3 -6 7 4 11 13 4 16 1 12 -19 -2 -13 0 -24 6 -24 10
0 11 4 14 38 1 23 25 54 36 47 5 -3 11 -1 15 5 3 5 2 10 -4 10 -6 0 -9 13 -8
29 1 16 4 28 5 26 7 -6 41 29 36 37 -3 4 2 5 10 2 9 -3 16 -1 16 6 0 6 4 9 9
6 5 -4 8 9 7 29 -2 19 0 32 5 30 4 -3 11 -1 14 5 5 8 11 7 21 -1 23 -19 37 4
38 60 1 27 4 47 9 44 4 -2 7 3 7 11 0 20 -17 29 -24 14 -3 -7 -3 -2 0 11 5 17
3 21 -6 16 -9 -6 -11 -4 -5 5 6 10 12 7 26 -11 l18 -24 -5 25 -5 25 15 -25 c8
-14 11 -27 7 -30 -4 -3 -11 -18 -14 -35 l-7 -30 19 35 c10 19 16 41 13 49 -4
10 -1 12 9 6 8 -4 11 -5 7 0 -4 4 0 14 8 22 8 9 13 22 10 29 -3 8 -2 14 2 14
4 0 15 16 24 35 13 30 13 37 1 55 -10 15 -11 20 -2 20 7 0 9 3 6 7 -9 9 22 43
40 43 7 0 13 10 12 23 0 12 -3 16 -6 10 -2 -7 -11 -13 -19 -13 -8 0 -14 -4
-14 -10 0 -5 -5 -10 -11 -10 -6 0 -9 7 -5 15 3 8 2 15 -3 15 -5 0 -11 -9 -14
-20 -3 -11 -1 -18 4 -14 11 6 12 -7 2 -32 -6 -16 -7 -16 -13 1 -6 17 -7 17
-12 -3 -4 -14 -2 -22 7 -22 17 0 26 -37 14 -63 -8 -20 -9 -19 -4 5 3 15 1 30
-5 33 -8 5 -15 -21 -11 -47 1 -10 -26 -3 -45 12 -11 9 -15 10 -10 3 5 -10 -11
-13 -73 -13 -102 0 -111 -4 -111 -46 l0 -34 -64 0 c-86 0 -96 -5 -96 -46 l0
-34 -64 0 c-86 0 -96 -5 -96 -46 l0 -34 -104 0 c-57 0 -111 -3 -120 -6 -10 -4
-16 -18 -16 -40 l0 -34 -64 0 c-86 0 -96 -5 -96 -46 l0 -34 -104 0 c-57 0
-111 -3 -120 -6 -10 -4 -16 -18 -16 -40 l0 -34 -104 0 c-57 0 -111 -3 -120 -6
-10 -4 -16 -18 -16 -40 l0 -34 -160 0 c-153 0 -160 -1 -160 -20 0 -17 -7 -20
-40 -20 -33 0 -40 -3 -40 -20 0 -19 -7 -20 -120 -20 -113 0 -120 -1 -120 -20
0 -17 -7 -20 -40 -20 -33 0 -40 -3 -40 -20 0 -19 -7 -20 -104 -20 -57 0 -111
-3 -120 -6 -10 -4 -16 -18 -16 -40 0 -31 -3 -34 -30 -34 -16 0 -33 -1 -37 -2
-5 -2 -12 7 -18 20 -13 30 -75 32 -75 2 0 -19 -7 -20 -160 -20 -153 0 -160 -1
-160 -20 0 -17 -7 -20 -40 -20 -33 0 -40 -3 -40 -20 0 -19 -7 -20 -224 -20
-123 0 -231 -3 -240 -6 -10 -4 -16 -18 -16 -40 0 -31 -3 -34 -30 -34 -16 0
-33 -1 -37 -1 -5 -1 -12 8 -18 20 -9 19 -18 21 -82 21 -66 0 -73 -2 -73 -20 0
-20 -7 -20 -870 -20 -478 0 -873 -1 -877 -1 -5 -1 -12 8 -18 20 -9 19 -18 21
-82 21 -65 0 -73 -2 -73 -19 0 -14 -9 -20 -36 -23 -41 -5 -49 4 -45 50 l3 33
-239 -2 c-233 -1 -238 -1 -248 20 -7 15 -19 21 -42 21 -27 0 -33 4 -33 20 0
20 -5 21 -197 19 -192 -1 -198 -1 -208 20 -7 15 -19 21 -42 21 -27 0 -33 4
-33 21 0 19 -5 20 -117 18 -112 -2 -119 -1 -128 20 -7 15 -19 21 -42 21 -27 0
-33 4 -33 21 0 19 -5 20 -117 18 -112 -2 -119 -1 -128 20 -7 15 -19 21 -42 21
-26 0 -33 4 -33 20 0 19 -7 20 -89 20 -93 0 -113 -8 -89 -37 12 -15 11 -15 -9
-4 -14 7 -20 17 -17 26 8 20 -6 19 -23 -2 -14 -17 -14 -17 -9 0 3 10 2 16 -3
12 -5 -3 -21 -1 -36 5 -18 7 -24 7 -20 -1 4 -6 1 -9 -6 -7 -8 1 -15 0 -16 -5
-3 -8 5 -9 31 -1 10 3 23 1 30 -6 8 -9 7 -11 -4 -10 -8 1 -22 2 -30 1 -12 -1
-11 -4 3 -12 12 -7 22 -7 30 0 16 12 58 -7 65 -29 4 -12 1 -11 -15 3 -11 9
-24 17 -29 17 -5 -1 2 -10 16 -21 22 -18 25 -19 36 -5 12 17 34 22 34 7 0 -20
41 -23 56 -4 12 16 15 16 24 3 15 -24 12 -32 -11 -25 -15 5 -19 4 -14 -5 4 -7
1 -11 -6 -9 -8 1 -21 1 -29 0 -12 -1 -11 -4 3 -12 12 -7 22 -7 30 0 16 12 58
-7 65 -29 4 -12 1 -11 -15 3 -11 9 -24 17 -29 17 -5 -1 2 -10 16 -21 22 -18
25 -19 36 -5 6 9 17 16 24 16 9 0 7 -6 -5 -20 -18 -20 -12 -25 24 -21 7 2 10
-2 7 -8 -4 -6 5 -13 21 -17 15 -4 40 -15 55 -25 34 -24 34 -24 53 9 14 23 15
24 9 4 -5 -21 -4 -23 15 -13 17 10 20 9 15 -4 -7 -18 0 -19 29 -3 31 16 55 17
68 1 8 -8 8 -13 1 -13 -6 0 -12 5 -14 10 -2 7 -11 5 -23 -4 -19 -15 -19 -15
10 -16 35 -1 64 -19 58 -38 -3 -7 1 -10 11 -6 9 3 16 1 16 -5 0 -6 5 -11 11
-11 5 0 8 4 5 8 -2 4 6 9 20 10 13 1 24 -3 24 -9 0 -5 -5 -7 -11 -3 -6 3 -15
0 -20 -7 -7 -11 -12 -12 -29 -1 -17 10 -20 10 -20 -3 0 -21 63 -50 87 -40 15
8 14 9 -10 13 -15 2 -25 7 -22 12 3 5 12 7 19 4 8 -3 17 -1 21 5 3 6 20 11 36
11 20 0 28 4 23 12 -4 7 -3 8 5 4 19 -12 2 -26 -32 -27 -18 0 -26 -3 -19 -6
10 -4 10 -9 -3 -23 -14 -16 -14 -19 10 -34 14 -9 25 -14 25 -11 0 3 10 0 23
-7 12 -6 28 -13 35 -14 8 -1 30 -14 51 -28 39 -27 61 -33 61 -15 0 5 5 7 10 4
6 -4 8 -10 5 -15 -5 -8 24 -30 39 -30 3 0 12 12 20 28 8 15 15 21 16 14 0 -8
5 -10 13 -5 6 4 18 8 25 9 22 4 2 -16 -31 -30 -29 -12 -30 -14 -12 -22 11 -4
23 -12 27 -18 5 -8 11 -7 20 2 6 6 21 12 32 11 19 0 19 -1 3 -8 -10 -4 -18
-10 -18 -14 1 -4 3 -6 4 -4 2 1 12 -5 22 -13 15 -13 19 -12 32 5 15 19 15 19
10 -5 l-6 -25 18 24 c17 22 19 23 28 6 6 -10 15 -15 22 -11 6 4 9 11 7 15 -3
4 1 8 8 8 25 0 12 -26 -16 -32 -15 -4 -28 -11 -28 -16 0 -5 11 -4 26 1 14 6
23 6 20 1 -4 -5 0 -12 6 -15 7 -3 2 -3 -12 0 -22 4 -23 4 -7 -7 11 -6 24 -12
30 -13 7 -1 18 -5 25 -9 7 -5 12 -3 12 7 0 9 -6 16 -14 16 -8 0 -16 6 -19 14
-8 20 23 14 39 -8 7 -10 10 -25 7 -34 -5 -11 -2 -14 10 -9 9 3 17 3 17 -1 0
-12 59 -34 71 -26 8 4 9 3 5 -4 -5 -8 0 -12 13 -12 11 0 23 -4 26 -10 4 -6 18
-4 38 7 29 15 30 17 12 23 -11 4 -32 5 -47 3 -18 -4 -28 -1 -28 6 0 8 8 10 20
6 11 -4 20 -2 20 4 0 19 37 32 50 17 9 -12 7 -14 -12 -9 l-23 5 24 -20 23 -19
-28 -21 c-16 -12 -23 -22 -16 -23 6 -1 15 -2 20 -3 8 -3 78 -34 105 -48 10 -5
22 -6 27 -3 6 4 10 1 10 -5 0 -6 4 -9 9 -6 5 4 11 3 13 -2 1 -4 38 -22 81 -39
42 -18 75 -28 72 -23 -3 5 15 -3 40 -17 25 -14 52 -22 61 -19 8 3 12 2 9 -4
-5 -9 -1 -11 20 -10 3 0 18 -6 34 -14 15 -8 38 -12 49 -9 34 8 26 23 -8 17
-20 -4 -30 -2 -30 5 0 7 4 9 10 6 5 -3 19 -1 30 5 14 8 20 8 20 0 0 -6 7 -10
16 -8 10 2 19 -3 22 -11 3 -9 0 -12 -10 -9 -7 3 -22 0 -33 -8 -18 -13 -10 -20
18 -15 4 1 15 -5 23 -14 9 -8 22 -16 30 -16 25 -2 29 -4 72 -21 90 -38 118
-48 137 -51 11 -2 31 -9 45 -16 23 -11 24 -11 6 3 -20 16 -19 16 1 16 13 0 23
-8 26 -21 4 -16 10 -20 24 -14 30 13 56 11 61 -5 5 -13 3 -13 -12 -1 -11 10
-20 11 -27 4 -16 -16 206 -85 234 -72 20 9 20 9 -5 6 -15 -2 -25 0 -22 5 3 5
16 8 27 6 12 -1 28 1 36 6 9 6 12 5 9 -5 -3 -8 -14 -19 -26 -25 -20 -10 -16
-13 37 -29 32 -9 65 -14 71 -10 8 5 11 4 6 -3 -4 -7 9 -15 35 -22 23 -6 52
-16 66 -21 16 -6 22 -6 18 1 -3 6 10 1 29 -11 19 -11 45 -22 58 -23 13 -2 31
-7 40 -11 10 -4 29 -8 43 -9 14 0 25 -4 25 -7 0 -4 12 -9 28 -12 15 -3 36 -9
46 -13 14 -5 17 -4 12 4 -9 16 -1 15 16 -1 17 -16 95 -39 136 -40 18 0 28 -3
22 -7 -6 -3 23 -14 65 -24 41 -10 80 -14 86 -10 8 5 9 3 4 -6 -6 -9 -2 -10 15
-5 17 5 21 4 15 -5 -5 -8 -4 -11 2 -7 5 3 29 -1 53 -9 25 -9 55 -14 67 -11 12
2 20 1 18 -3 -3 -4 5 -10 18 -14 35 -9 49 -7 42 7 -4 6 -1 5 7 -4 7 -9 19 -14
26 -12 6 3 12 0 12 -5 0 -5 10 -10 23 -10 40 -1 83 -8 95 -16 6 -4 24 -9 39
-11 16 -3 118 -23 228 -46 110 -22 228 -41 261 -42 34 -1 57 -5 50 -9 -6 -5
-1 -8 14 -9 14 0 44 -1 68 -2 23 0 42 -4 42 -8 0 -6 75 -18 165 -25 22 -2 69
-8 105 -14 35 -6 108 -12 162 -13 54 -1 98 -5 98 -9 0 -13 75 -9 89 5 8 7 11
7 8 1 -10 -18 51 -26 238 -31 94 -3 215 -7 270 -9 55 -3 188 0 295 6 107 6
213 10 235 10 56 0 362 29 426 41 30 5 79 12 109 14 30 3 62 8 70 11 8 3 35 8
60 11 25 2 63 9 85 15 22 6 58 12 80 15 21 2 57 9 80 15 22 6 45 12 50 13 41
5 136 29 140 35 3 5 15 6 27 2 12 -3 19 -1 15 4 -3 6 9 10 26 11 18 0 50 9 72
18 22 10 44 17 48 16 18 -3 408 121 432 138 6 4 29 13 53 20 32 9 41 15 33 24
-7 9 -5 13 9 13 10 0 16 -5 13 -10 -4 -5 1 -7 11 -3 10 4 20 7 22 7 3 0 2 5
-2 12 -4 7 -3 8 4 4 14 -8 222 82 222 96 0 5 4 7 9 4 5 -3 77 30 159 75 l151
80 -3 34 c-3 30 -2 33 14 22 17 -10 17 -12 2 -24 -31 -23 9 -15 55 13 25 14
41 30 37 36 -4 7 -2 8 4 4 15 -9 64 23 55 37 -3 6 -1 7 5 3 15 -9 122 60 122
79 0 4 -8 4 -17 0 -15 -5 -16 -4 -5 6 9 10 15 10 24 1 8 -8 19 -5 42 14 17 14
72 57 121 96 99 78 105 85 98 104 -2 6 0 15 6 19 7 4 8 0 4 -11 -5 -12 3 -10
33 9 21 14 38 30 36 37 -1 6 1 9 6 6 14 -8 55 41 47 55 -6 8 -4 10 4 5 15 -10
107 81 103 100 -2 8 3 11 11 8 9 -3 34 18 66 54 50 59 63 81 39 65 -19 -11
-39 -13 -32 -2 3 5 9 7 14 4 5 -3 11 -1 15 5 4 6 11 8 17 4 5 -3 22 9 38 27
22 27 26 37 17 48 -10 12 -9 13 2 6 14 -8 24 2 73 70 l22 30 -24 -20 -24 -20
20 27 c10 14 21 24 23 22 7 -6 41 28 41 40 0 6 -4 5 -9 -2 -7 -11 -9 -11 -14
1 -3 9 1 14 12 13 20 -1 70 59 116 139 16 28 44 72 62 99 34 49 42 73 21 60
-7 -4 -8 -3 -4 5 4 6 11 9 16 6 5 -3 15 7 23 22 7 16 34 66 59 113 25 47 43
91 40 99 -2 8 0 11 6 7 15 -9 21 16 9 39 -6 11 -11 31 -13 45 l-2 25 21 -27
20 -27 23 47 c63 133 160 381 169 432 0 3 6 14 12 25 8 16 24 69 28 95 0 3 5
19 11 35 26 72 32 97 27 111 -3 8 -1 14 5 14 12 0 42 117 35 136 -3 8 0 14 6
14 6 0 10 3 9 8 -1 4 2 23 7 42 5 19 9 40 10 45 0 6 7 30 14 53 7 24 9 58 6
75 -4 21 -3 27 3 18 9 -13 20 33 28 114 2 17 8 49 14 73 10 42 1 87 -14 64 -3
-6 -2 -13 4 -17 13 -8 13 -25 -1 -25 -5 0 -8 4 -4 9 3 5 1 12 -5 16 -7 4 -5
13 4 27 8 11 13 25 12 32 -2 6 -1 8 1 4 12 -21 25 -5 20 22 -4 16 -2 32 3 35
16 10 12 71 -5 85 -8 7 -15 18 -14 24 0 7 2 6 6 -1 9 -23 33 -14 33 12 0 14
-5 25 -11 25 -5 0 -7 -4 -4 -10 3 -5 -2 -10 -11 -10 -16 0 -16 1 -1 18 10 10
17 26 17 35 0 9 4 17 9 17 5 0 8 11 7 25 0 14 -5 25 -10 25 -5 0 -3 7 4 15 9
10 9 15 1 15 -6 0 -11 5 -11 11 0 5 5 7 10 4 12 -7 13 2 15 165 1 69 4 132 7
140 3 8 3 12 1 7 -3 -4 -9 -5 -14 -1 -12 7 -11 91 1 115 7 12 7 25 1 36 -7 13
-11 3 -16 -42z m-38 -237 c-3 -8 -6 -5 -6 6 -1 11 2 17 5 13 3 -3 4 -12 1 -19z
m33 -2 c0 -3 -4 -8 -10 -11 -5 -3 -10 -1 -10 4 0 6 5 11 10 11 6 0 10 -2 10
-4z m-43 -38 c-3 -8 -6 -5 -6 6 -1 11 2 17 5 13 3 -3 4 -12 1 -19z m20 -10
c-3 -8 -6 -5 -6 6 -1 11 2 17 5 13 3 -3 4 -12 1 -19z m30 -8 c1 -11 -2 -20 -5
-20 -4 0 -8 9 -9 20 -1 11 2 20 5 20 4 0 8 -9 9 -20z m-30 -42 c-3 -7 -5 -2
-5 12 0 14 2 19 5 13 2 -7 2 -19 0 -25z m25 -10 c-7 -7 -12 -8 -12 -2 0 14 12
26 19 19 2 -3 -1 -11 -7 -17z m13 -37 c-3 -11 -12 -18 -20 -15 -7 3 -15 -2
-17 -13 -3 -15 -5 -15 -10 5 -3 12 -2 20 3 17 4 -3 16 3 26 13 22 22 27 20 18
-7z m-28 -133 c-3 -7 -5 -2 -5 12 0 14 2 19 5 13 2 -7 2 -19 0 -25z m-40 -20
c-3 -7 -5 -2 -5 12 0 14 2 19 5 13 2 -7 2 -19 0 -25z m7 -78 c-6 -6 -10 -2
-11 12 -2 16 1 18 10 9 7 -7 8 -14 1 -21z m11 -27 c-2 -10 -4 -20 -4 -22 -1
-2 -7 2 -15 8 -11 10 -15 9 -19 -4 -4 -12 -5 -11 -3 2 1 10 6 18 13 18 6 0 15
3 19 8 11 11 13 9 9 -10z m17 -45 c-7 -7 -12 -20 -12 -30 0 -16 -3 -16 -20 -6
-23 15 -27 33 -6 25 8 -3 20 1 26 9 7 8 15 14 18 14 3 0 1 -5 -6 -12z m-45
-180 c-3 -8 -6 -5 -6 6 -1 11 2 17 5 13 3 -3 4 -12 1 -19z m20 -20 c-3 -8 -6
-5 -6 6 -1 11 2 17 5 13 3 -3 4 -12 1 -19z m-23 -23 c-4 -8 -8 -15 -10 -15 -2
0 -4 7 -4 15 0 8 4 15 10 15 5 0 7 -7 4 -15z m3 -47 c-3 -8 -6 -5 -6 6 -1 11
2 17 5 13 3 -3 4 -12 1 -19z m0 -60 c-3 -7 -5 -2 -5 12 0 14 2 19 5 13 2 -7 2
-19 0 -25z m-27 -139 c0 -14 -17 -10 -23 5 -4 10 -1 13 9 9 7 -3 14 -9 14 -14z
m-63 -21 c-3 -8 -6 -5 -6 6 -1 11 2 17 5 13 3 -3 4 -12 1 -19z m20 -10 c-3 -8
-6 -5 -6 6 -1 11 2 17 5 13 3 -3 4 -12 1 -19z m3 -72 c0 -26 -6 -18 -14 19 -5
22 -4 26 4 15 5 -8 10 -24 10 -34z m-13 -78 c-3 -8 -6 -5 -6 6 -1 11 2 17 5
13 3 -3 4 -12 1 -19z m-10 -65 c-3 -10 -5 -4 -5 12 0 17 2 24 5 18 2 -7 2 -21
0 -30z m-1347 -8 c0 -8 -4 -15 -10 -15 -5 0 -7 7 -4 15 4 8 8 15 10 15 2 0 4
-7 4 -15z m1295 -55 c11 10 12 7 2 -14 -12 -25 -27 -17 -26 14 0 11 2 11 6 2
4 -10 8 -10 18 -2z m-1300 -17 c-2 -10 -4 -18 -6 -18 -1 0 -3 -10 -4 -22 -1
-13 2 -23 6 -23 14 0 10 -27 -6 -40 -16 -13 -21 -35 -6 -26 5 4 7 -4 4 -16 -4
-19 -3 -20 6 -8 7 9 11 10 11 3 0 -20 -20 -25 -27 -6 -4 10 -11 21 -16 24 -5
4 1 16 13 27 20 18 20 50 1 37 -5 -2 -6 12 -4 32 2 21 9 41 16 45 16 10 16 10
12 -9z m1318 -30 c-12 -32 -40 -56 -48 -42 -5 8 -4 10 3 5 7 -4 12 -2 12 3 0
9 30 51 37 51 1 0 -1 -8 -4 -17z m-48 -63 c3 -6 -1 -7 -9 -4 -18 7 -21 14 -7
14 6 0 13 -4 16 -10z m-68 -132 c-3 -8 -6 -5 -6 6 -1 11 2 17 5 13 3 -3 4 -12
1 -19z m-1207 3 c0 -5 -7 -12 -16 -15 -14 -5 -15 -4 -4 9 14 17 20 19 20 6z
m1259 6 c-2 -1 -13 -9 -24 -17 -19 -14 -19 -14 -6 3 7 9 18 17 24 17 6 0 8 -1
6 -3z m-13 -53 c-4 -9 -9 -15 -11 -12 -3 3 -3 13 1 22 4 9 9 15 11 12 3 -3 3
-13 -1 -22z m-29 -6 c-3 -8 -6 -5 -6 6 -1 11 2 17 5 13 3 -3 4 -12 1 -19z m15
-54 c-9 -16 -10 -14 -9 8 1 15 6 23 11 18 4 -4 4 -16 -2 -26z m-1302 -4 c0 -5
-4 -10 -10 -10 -5 0 -7 -8 -4 -17 5 -17 5 -17 -6 0 -11 18 -6 37 11 37 5 0 9
-4 9 -10z m-46 -79 c-9 -23 -18 -40 -20 -38 -2 2 4 22 13 45 9 23 18 40 20 38
2 -2 -4 -22 -13 -45z m1316 2 c-11 -17 -11 -17 -6 0 3 10 6 24 7 30 0 9 2 9 5
0 3 -7 0 -20 -6 -30z m-1290 -3 c-6 -11 -12 -20 -14 -20 -2 0 -2 9 1 20 3 11
9 20 15 20 5 0 4 -9 -2 -20z m-23 -72 c-3 -7 -5 -2 -5 12 0 14 2 19 5 13 2 -7
2 -19 0 -25z m20 -34 c-3 -3 -17 -7 -32 -10 -25 -4 -27 -3 -14 12 8 10 15 12
17 5 6 -19 22 -1 23 27 l2 27 4 -28 c3 -16 2 -31 0 -33z m1243 -4 c-7 -16 -16
-27 -21 -24 -5 3 -2 12 6 20 8 9 15 23 15 31 0 9 3 13 6 10 4 -4 1 -20 -6 -37z
m-1290 -54 c0 -2 -8 -10 -17 -17 -16 -13 -17 -12 -4 4 13 16 21 21 21 13z
m-50 -91 c0 -5 -5 -3 -10 5 -8 12 -10 12 -10 1 0 -8 -2 -12 -5 -9 -3 3 -2 13
1 22 5 14 9 15 15 4 5 -7 9 -17 9 -23z m1276 -2 c-8 -15 -15 -22 -16 -15 0 14
22 53 28 47 2 -2 -3 -16 -12 -32z m-1270 -25 c-9 -12 -16 -19 -16 -15 0 11 24
47 28 42 2 -2 -3 -14 -12 -27z m-1288 -112 c-10 -7 -15 -16 -11 -19 3 -4 1 -7
-5 -7 -18 0 -14 18 6 29 24 15 30 13 10 -3z m1212 -11 c7 -9 10 -18 6 -22 -3
-3 -6 -2 -6 4 0 5 -7 10 -15 10 -8 0 -15 -6 -15 -14 0 -7 -4 -13 -10 -13 -6 0
-5 10 2 25 13 29 21 31 38 10z m1261 -24 c-6 -10 -7 -22 -3 -26 4 -5 2 -5 -5
-2 -13 8 -6 47 9 47 5 0 4 -8 -1 -19z m-2471 -6 c-7 -9 -15 -13 -19 -10 -3 3
1 10 9 15 21 14 24 12 10 -5z m-97 -20 c-3 -9 -8 -14 -10 -11 -3 3 -2 9 2 15
9 16 15 13 8 -4z m21 -50 c-3 -7 -1 -16 5 -20 7 -4 8 -12 1 -24 -5 -10 -7 -21
-4 -24 3 -3 0 -8 -6 -12 -6 -4 -9 -1 -8 7 2 8 -5 12 -17 11 -11 -1 -14 0 -7 3
10 5 10 9 1 20 -7 8 -9 17 -5 21 3 3 6 0 6 -8 0 -12 2 -12 10 1 5 8 5 19 0 25
-6 7 -2 11 10 12 12 1 17 -3 14 -12z m1212 -27 c4 -7 3 -8 -4 -4 -15 9 -15 1
-1 -27 12 -22 12 -22 -8 -2 -11 11 -18 26 -15 33 5 15 19 16 28 0z m1231 -30
c-3 -8 -6 -5 -6 6 -1 11 2 17 5 13 3 -3 4 -12 1 -19z m38 2 c-3 -5 -11 -10
-16 -10 -6 0 -7 5 -4 10 3 6 11 10 16 10 6 0 7 -4 4 -10z m-2559 -76 c-1 -8
-6 -17 -10 -21 -4 -4 -7 -3 -6 2 1 6 2 17 1 25 -1 13 -2 13 -11 0 -8 -12 -10
-11 -10 8 0 19 2 21 19 10 10 -6 18 -17 17 -24z m2512 -19 c-3 -3 -9 2 -12 12
-6 14 -5 15 5 6 7 -7 10 -15 7 -18z m-2554 -36 c-6 -11 -24 -2 -24 11 0 5 7 7
15 4 8 -4 12 -10 9 -15z m-37 -21 c-3 -7 -5 -2 -5 12 0 14 2 19 5 13 2 -7 2
-19 0 -25z m2545 3 c-9 -16 -18 -28 -21 -26 -4 5 27 55 34 55 2 0 -4 -13 -13
-29z m-1292 -21 c0 -5 -7 -10 -16 -10 -8 0 -12 5 -9 10 3 6 10 10 16 10 5 0 9
-4 9 -10z m-1253 -23 c0 -7 -11 -13 -24 -13 -12 0 -23 4 -23 9 0 5 7 6 16 3
11 -4 15 -2 11 8 -4 10 -1 13 7 10 7 -3 13 -11 13 -17z m1300 17 c-3 -3 -12
-4 -19 -1 -8 3 -5 6 6 6 11 1 17 -2 13 -5z m-83 -22 c3 -5 -1 -9 -9 -9 -8 0
-12 4 -9 9 3 4 7 8 9 8 2 0 6 -4 9 -8z m-1309 -80 c-3 -3 -11 0 -18 7 -9 10
-8 11 6 5 10 -3 15 -9 12 -12z m-33 -153 c-26 -37 -42 -49 -42 -30 0 5 7 11
15 14 10 4 13 17 10 44 -3 25 -2 33 4 24 5 -8 6 -21 3 -30 -5 -14 -3 -14 11
-2 13 10 14 18 6 35 -10 20 -9 20 5 2 14 -17 13 -22 -12 -57z m1219 54 c-11
-21 -51 -56 -51 -46 0 7 51 63 57 63 2 0 -1 -8 -6 -17z m1262 2 c-3 -9 -8 -14
-10 -11 -3 3 -2 9 2 15 9 16 15 13 8 -4z m-9623 -5 c0 -5 -2 -10 -4 -10 -3 0
-8 5 -11 10 -3 6 -1 10 4 10 6 0 11 -4 11 -10z m8417 -25 c4 -4 3 -5 -4 -2 -6
4 -13 2 -15 -5 -3 -8 -6 -6 -10 4 -7 17 15 19 29 3z m-43 -20 c3 -8 1 -15 -4
-15 -6 0 -10 7 -10 15 0 8 2 15 4 15 2 0 6 -7 10 -15z m-8229 -15 c-3 -5 -1
-10 4 -10 6 0 11 -5 11 -11 0 -8 -5 -8 -15 1 -18 15 -20 -1 -3 -18 8 -8 8 -12
1 -12 -6 0 -16 6 -22 14 -9 11 -8 18 4 30 18 18 29 21 20 6z m8155 0 c0 -5 -5
-10 -11 -10 -5 0 -7 5 -4 10 3 6 8 10 11 10 2 0 4 -4 4 -10z m-1217 -30 c3
-10 -1 -25 -9 -31 -12 -10 -13 -9 -8 6 5 13 4 16 -4 11 -16 -9 -15 7 0 22 15
15 15 16 21 -8z m-6893 -44 c0 -8 -7 -16 -15 -20 -12 -4 -13 -2 -2 14 14 24
17 25 17 6z m65 0 c11 -1 30 1 42 6 14 4 25 3 29 -4 4 -7 3 -8 -4 -4 -7 4 -12
2 -12 -3 0 -6 8 -11 18 -11 14 0 15 -2 2 -10 -9 -5 -19 -5 -26 1 -6 5 -30 10
-52 11 -26 1 -43 7 -47 16 -4 10 -1 12 12 7 10 -4 27 -8 38 -9z m6775 -23 c0
-8 -5 -11 -10 -8 -6 4 -17 1 -25 -5 -11 -9 -14 -8 -12 7 1 22 47 28 47 6z m30
13 c0 -3 -4 -8 -10 -11 -5 -3 -10 -1 -10 4 0 6 5 11 10 11 6 0 10 -2 10 -4z
m-6820 -21 c-1 -4 9 -13 21 -19 12 -6 24 -17 25 -24 1 -7 0 -8 -3 -2 -2 5 -10
10 -18 10 -7 0 -18 7 -25 15 -7 9 -20 13 -29 10 -11 -3 -10 0 3 10 19 14 29
14 26 0z m61 -12 c12 -16 12 -17 -1 -7 -8 6 -22 14 -30 17 -13 5 -12 6 1 6 9
1 23 -7 30 -16z m7921 -15 c-7 -7 -12 -8 -12 -2 0 14 12 26 19 19 2 -3 -1 -11
-7 -17z m-1237 -8 c3 -5 2 -10 -4 -10 -5 0 -13 5 -16 10 -3 6 -2 10 4 10 5 0
13 -4 16 -10z m-47 -24 c-28 -21 -21 -30 10 -12 26 17 26 17 7 -1 -11 -10 -31
-29 -44 -43 l-25 -25 18 29 c16 25 16 28 3 23 -9 -3 -19 -2 -22 4 -4 5 -3 9 2
8 20 -4 27 2 13 12 -13 9 -13 10 1 6 9 -3 22 -1 30 4 21 13 26 10 7 -5z m1168
-54 c-17 -16 -18 -16 -5 5 7 12 15 20 18 17 3 -2 -3 -12 -13 -22z m58 11 c4
-10 4 -14 0 -10 -4 4 -16 -1 -28 -10 -20 -18 -20 -18 0 9 23 33 20 32 28 11z
m-84 -26 c0 -2 -12 -14 -27 -28 l-28 -24 24 28 c23 25 31 32 31 24z m-1258
-14 c-6 -2 -10 -9 -6 -14 3 -5 0 -9 -5 -9 -12 0 -14 13 -4 23 3 4 11 7 17 6 6
0 5 -3 -2 -6z m2552 -19 c3 -8 2 -12 -4 -9 -6 3 -10 10 -10 16 0 14 7 11 14
-7z m29 1 c-3 -9 -8 -14 -10 -11 -3 3 -2 9 2 15 9 16 15 13 8 -4z m-2583 -30
c-7 -9 -15 -13 -17 -11 -7 7 7 26 19 26 6 0 6 -6 -2 -15z m-6180 -11 c0 -2 -7
-4 -15 -4 -8 0 -15 4 -15 10 0 5 7 7 15 4 8 -4 15 -8 15 -10z m56 -10 c-4 -11
-2 -15 8 -11 7 3 23 -1 34 -9 18 -12 20 -11 26 11 4 15 14 25 24 25 14 0 14
-2 3 -9 -21 -13 -22 -39 -3 -51 11 -6 12 -9 4 -10 -7 0 -10 -4 -7 -10 8 -13
-5 -13 -25 0 -13 8 -12 10 4 10 17 0 15 15 -2 15 -4 0 -13 4 -20 9 -7 4 -16 5
-19 2 -6 -6 -63 21 -63 30 0 3 4 3 9 -1 5 -3 12 -1 16 5 10 16 18 12 11 -6z
m49 -2 c-3 -3 -11 0 -18 7 -9 10 -8 11 6 5 10 -3 15 -9 12 -12z m7310 8 c3 -5
2 -10 -4 -10 -5 0 -13 5 -16 10 -3 6 -2 10 4 10 5 0 13 -4 16 -10z m-7245 -31
c0 -5 -4 -9 -8 -9 -5 0 -9 7 -9 15 0 8 4 12 9 9 4 -3 8 -9 8 -15z m5930 11
c-6 -4 -11 -11 -11 -16 0 -5 -13 -7 -29 -6 -22 3 -30 -1 -30 -12 0 -16 -12
-21 -23 -9 -10 10 25 32 53 33 18 0 21 3 11 9 -9 6 -5 9 14 9 16 0 22 -4 15
-8z m2564 -11 c-3 -5 -10 -7 -15 -3 -5 3 -7 10 -3 15 3 5 10 7 15 3 5 -3 7
-10 3 -15z m-1319 -28 c-3 -6 -11 -11 -16 -11 -5 0 -4 6 3 14 14 16 24 13 13
-3z m-1280 -1 c-3 -5 -11 -10 -16 -10 -6 0 -7 5 -4 10 3 6 11 10 16 10 6 0 7
-4 4 -10z m1212 -8 c-10 -10 -15 -21 -12 -23 2 -3 -5 -5 -15 -5 -17 0 -16 3 8
23 33 27 41 29 19 5z m-7067 -37 c0 -5 -5 -3 -10 5 -5 8 -10 20 -10 25 0 6 5
3 10 -5 5 -8 10 -19 10 -25z m125 25 c-3 -5 -12 -10 -18 -10 -7 0 -6 4 3 10
19 12 23 12 15 0z m5635 -28 c3 -2 -6 -1 -19 3 -16 5 -21 4 -17 -4 4 -6 3 -11
-3 -11 -5 0 -9 9 -8 19 1 16 5 18 22 9 11 -6 22 -13 25 -16z m50 18 c0 -5 -2
-10 -4 -10 -3 0 -8 5 -11 10 -3 6 -1 10 4 10 6 0 11 -4 11 -10z m-5705 -19 c9
-15 -36 -25 -49 -11 -8 10 -8 11 1 6 6 -3 14 -2 18 4 8 13 22 13 30 1z m6932
-37 c-3 -3 -12 -4 -19 -1 -8 3 -5 6 6 6 11 1 17 -2 13 -5z m-6751 -13 c-4 -5
0 -12 6 -14 8 -3 6 -6 -4 -6 -18 -1 -24 10 -11 22 9 10 15 8 9 -2z m44 5 c0
-3 -4 -8 -10 -11 -5 -3 -10 -1 -10 4 0 6 5 11 10 11 6 0 10 -2 10 -4z m37 -30
c1 -12 -1 -15 -4 -8 -3 6 -9 10 -14 6 -5 -3 -9 1 -9 9 0 22 26 16 27 -7z
m5219 -2 c18 -14 18 -14 -6 -3 -31 14 -36 19 -24 19 6 0 19 -7 30 -16z m-5236
-37 c0 -6 -9 -2 -20 8 -11 10 -20 23 -20 28 0 6 9 2 20 -8 11 -10 20 -23 20
-28z m6550 -4 c0 -1 -8 -7 -18 -12 -13 -7 -19 -6 -19 2 0 7 9 13 19 13 10 0
18 -1 18 -3z m-6470 -13 c0 -11 -39 -34 -47 -27 -2 3 6 9 19 13 22 7 22 7 3
15 -19 7 -19 8 3 8 12 1 22 -3 22 -9z m5050 -10 c0 -5 -5 -10 -11 -10 -5 0 -7
5 -4 10 3 6 8 10 11 10 2 0 4 -4 4 -10z m40 -4 c0 -2 -7 -7 -16 -10 -8 -3 -12
-2 -9 4 6 10 25 14 25 6z m2685 -15 c3 -5 2 -12 -3 -15 -5 -3 -9 1 -9 9 0 17
3 19 12 6z m-2725 -5 c0 -2 -11 -6 -25 -8 -14 -3 -25 -1 -25 3 0 5 11 9 25 9
14 0 25 -2 25 -4z m2687 -2 c-3 -3 -12 -4 -19 -1 -8 3 -5 6 6 6 11 1 17 -2 13
-5z m-1346 -27 c-10 -9 -11 -8 -5 6 3 10 9 15 12 12 3 -3 0 -11 -7 -18z m1343
-12 c-4 -8 -8 -15 -10 -15 -2 0 -4 7 -4 15 0 8 4 15 10 15 5 0 7 -7 4 -15z
m-7611 -9 c-4 -5 1 -7 11 -3 10 4 15 3 11 -3 -8 -13 -18 -13 -39 3 -16 12 -16
13 3 13 11 0 17 -5 14 -10z m6187 4 c-8 -5 -19 -10 -25 -10 -5 0 -3 5 5 10 8
5 20 10 25 10 6 0 3 -5 -5 -10z m-1496 -19 c15 -6 16 -9 5 -13 -8 -3 -20 1
-27 8 -14 15 -7 17 22 5z m-4582 -30 c10 -13 10 -14 -2 -3 -8 6 -22 12 -31 12
-10 0 -20 4 -23 9 -10 15 43 -1 56 -18z m6005 -3 c-3 -8 -6 -5 -6 6 -1 11 2
17 5 13 3 -3 4 -12 1 -19z m-17 -8 c0 -5 -2 -10 -4 -10 -3 0 -8 5 -11 10 -3 6
-1 10 4 10 6 0 11 -4 11 -10z m-3890 -20 c0 -5 -5 -10 -11 -10 -5 0 -7 5 -4
10 3 6 8 10 11 10 2 0 4 -4 4 -10z m84 -2 c-5 -8 0 -7 11 2 11 9 16 10 11 3
-5 -9 1 -13 19 -13 16 0 24 4 19 11 -5 8 -1 8 13 0 14 -7 23 -7 33 2 9 9 8 6
-1 -10 -8 -13 -17 -23 -22 -23 -4 0 -6 4 -3 8 3 5 -16 7 -43 4 -38 -3 -49 -1
-54 12 -4 10 -1 16 9 16 9 0 12 -5 8 -12z m-2009 -8 c-3 -5 -12 -10 -18 -10
-7 0 -6 4 3 10 19 12 23 12 15 0z m2145 -10 c0 -5 -4 -10 -10 -10 -5 0 -10 5
-10 10 0 6 5 10 10 10 6 0 10 -4 10 -10z m3609 -13 c0 -9 -2 -9 -6 0 -3 9 -11
9 -31 -3 l-27 -16 25 20 c25 21 41 20 39 -1z m1376 14 c3 -5 2 -12 -3 -15 -5
-3 -9 1 -9 9 0 17 3 19 12 6z m-7075 -11 c0 -5 -7 -10 -16 -10 -8 0 -12 5 -9
10 3 6 10 10 16 10 5 0 9 -4 9 -10z m1904 -6 c5 -13 3 -14 -6 -7 -7 6 -20 13
-28 16 -10 4 -8 6 6 6 12 1 25 -6 28 -15z m2142 6 c9 0 12 -5 9 -10 -4 -7 -12
-7 -24 0 -12 6 -30 6 -52 0 -18 -5 -35 -8 -37 -5 -7 6 61 24 76 19 8 -2 20 -4
28 -4z m-4086 -4 c0 -2 -11 -6 -25 -8 -13 -3 -22 -1 -19 3 5 9 44 13 44 5z
m2119 -10 c-2 -2 -24 -6 -49 -9 -30 -4 -38 -3 -25 3 19 8 83 14 74 6z m-2079
-16 c0 -13 -11 -13 -30 0 -12 8 -11 10 8 10 12 0 22 -4 22 -10z m5680 -10 c8
-5 11 -10 5 -10 -5 0 -17 5 -25 10 -8 5 -10 10 -5 10 6 0 17 -5 25 -10z
m-3707 -93 c-8 -5 -20 -4 -29 3 -11 10 -14 10 -14 1 0 -7 -5 -9 -12 -5 -7 5
-5 11 7 21 17 11 17 13 2 13 -9 0 -21 9 -27 19 -8 15 1 12 38 -12 36 -24 45
-34 35 -40z m517 58 c0 -17 -2 -18 -25 -9 -13 5 -14 8 -3 15 19 13 28 11 28
-6z m25 6 c3 -5 2 -12 -3 -15 -5 -3 -9 1 -9 9 0 17 3 19 12 6z m97 2 c-6 -2
-9 -10 -6 -15 4 -7 2 -8 -5 -4 -13 9 -5 26 12 25 9 0 8 -2 -1 -6z m243 -3 c3
-6 -4 -10 -17 -10 -18 0 -20 2 -8 10 19 12 18 12 25 0z m118 3 c-7 -2 -19 -2
-25 0 -7 3 -2 5 12 5 14 0 19 -2 13 -5z m270 0 c-7 -2 -19 -2 -25 0 -7 3 -2 5
12 5 14 0 19 -2 13 -5z m130 0 c-7 -2 -19 -2 -25 0 -7 3 -2 5 12 5 14 0 19 -2
13 -5z m3612 -3 c-3 -5 -12 -10 -18 -10 -7 0 -6 4 3 10 19 12 23 12 15 0z
m-6735 -10 c0 -5 -2 -10 -4 -10 -3 0 -8 5 -11 10 -3 6 -1 10 4 10 6 0 11 -4
11 -10z m2488 -2 c-2 -7 11 -15 27 -18 l30 -6 -27 -6 c-15 -3 -29 -1 -30 4 -2
5 -19 11 -38 14 -19 3 -37 8 -40 11 -3 3 7 3 23 1 15 -3 27 -1 27 3 0 5 7 9
15 9 8 0 14 -5 13 -12z m4192 8 c0 -2 -7 -7 -16 -10 -8 -3 -12 -2 -9 4 6 10
25 14 25 6z m-4360 -10 c0 -11 -19 -15 -25 -6 -3 5 1 10 9 10 9 0 16 -2 16 -4z
m207 -2 c-3 -3 -12 -4 -19 -1 -8 3 -5 6 6 6 11 1 17 -2 13 -5z m411 -1 c-10
-2 -26 -2 -35 0 -10 3 -2 5 17 5 19 0 27 -2 18 -5z m352 -3 c-14 -4 -34 -8
-45 -8 -16 0 -15 2 5 8 14 4 34 8 45 8 16 0 15 -2 -5 -8z m3405 0 c-3 -5 -12
-10 -18 -10 -7 0 -6 4 3 10 19 12 23 12 15 0z m-5047 -13 c7 -8 7 -18 2 -27
-8 -13 -10 -12 -10 2 0 9 -8 22 -17 27 -16 9 -16 10 -2 11 9 0 21 -6 27 -13z
m922 3 c0 -5 -4 -10 -10 -10 -5 0 -10 5 -10 10 0 6 5 10 10 10 6 0 10 -4 10
-10z m67 4 c-3 -3 -12 -4 -19 -1 -8 3 -5 6 6 6 11 1 17 -2 13 -5z m-2637 -24
c12 -8 11 -10 -7 -10 -13 0 -23 5 -23 10 0 13 11 13 30 0z m1778 -35 c-3 -3
-9 2 -12 12 -6 14 -5 15 5 6 7 -7 10 -15 7 -18z m-1713 5 c13 -6 15 -9 5 -9
-8 0 -22 4 -30 9 -18 12 -2 12 25 0z m104 -4 c9 -11 4 -13 -26 -10 -21 1 -44
-3 -53 -9 -13 -11 -13 -10 -1 6 10 13 22 16 39 12 15 -4 21 -2 17 5 -9 15 11
12 24 -4z m4931 -26 c18 -12 2 -12 -25 0 -13 6 -15 9 -5 9 8 0 22 -4 30 -9z
m-4945 -10 c13 -6 15 -9 5 -9 -8 0 -22 4 -30 9 -18 12 -2 12 25 0z m1664 0
c23 -6 40 -6 53 1 13 7 18 7 14 1 -3 -6 -1 -12 6 -14 7 -3 5 -7 -6 -11 -10 -4
-15 -3 -11 3 3 6 2 10 -4 10 -5 0 -15 -8 -20 -17 -10 -17 -10 -17 -11 0 0 9
-8 17 -17 17 -10 0 -25 5 -33 10 -19 12 -13 12 29 0z m3221 -14 c0 -2 -7 -7
-16 -10 -8 -3 -12 -2 -9 4 6 10 25 14 25 6z m-3215 -16 c3 -5 2 -10 -4 -10 -5
0 -13 5 -16 10 -3 6 -2 10 4 10 5 0 13 -4 16 -10z m129 -5 c-4 -8 -10 -15 -15
-15 -4 0 -6 7 -3 15 4 8 10 15 15 15 4 0 6 -7 3 -15z m-1554 -5 c11 -7 11 -10
2 -10 -7 0 -10 -4 -7 -10 3 -5 1 -10 -5 -10 -7 0 -10 6 -7 14 3 8 1 17 -6 20
-7 2 -7 5 -2 5 6 0 17 -4 25 -9z m4540 -10 c0 -5 -5 -10 -11 -10 -5 0 -7 5 -4
10 3 6 8 10 11 10 2 0 4 -4 4 -10z m1505 -22 c-11 -6 -23 -16 -27 -22 -5 -8
-8 -7 -8 1 0 12 28 32 45 32 6 0 1 -5 -10 -11z m-4380 -18 c8 -13 -5 -13 -25
0 -13 8 -13 10 2 10 9 0 20 -4 23 -10z m4210 -58 c-3 -3 -11 0 -18 7 -9 10 -8
11 6 5 10 -3 15 -9 12 -12z m-5630 -2 c3 -6 -1 -7 -9 -4 -18 7 -21 14 -7 14 6
0 13 -4 16 -10z m-31 -9 c4 -5 -3 -7 -14 -4 -23 6 -26 13 -6 13 8 0 17 -4 20
-9z m1606 -5 c0 -2 -9 -6 -20 -9 -11 -3 -18 -1 -14 4 5 9 34 13 34 5z m67 -3
c-9 -2 -15 -8 -12 -13 3 -5 1 -11 -5 -15 -5 -3 -10 0 -10 8 0 18 10 27 29 26
13 -1 12 -2 -2 -6z m2307 -11 c2 -4 -4 -8 -14 -8 -10 0 -16 4 -14 8 3 4 9 8
14 8 5 0 11 -4 14 -8z m123 -8 c-3 -3 -12 -4 -19 -1 -8 3 -5 6 6 6 11 1 17 -2
13 -5z m-3960 -10 c-3 -3 -12 -4 -19 -1 -8 3 -5 6 6 6 11 1 17 -2 13 -5z m78
-12 c-3 -3 -11 0 -18 7 -9 10 -8 11 6 5 10 -3 15 -9 12 -12z m50 -2 c-3 -5
-12 -10 -18 -10 -7 0 -6 4 3 10 19 12 23 12 15 0z m-25 -20 c8 -5 11 -10 5
-10 -5 0 -17 5 -25 10 -8 5 -10 10 -5 10 6 0 17 -5 25 -10z m1584 2 c3 -5 -1
-9 -9 -9 -8 0 -12 4 -9 9 3 4 7 8 9 8 2 0 6 -4 9 -8z m146 -26 c0 -2 -7 -7
-16 -10 -8 -3 -12 -2 -9 4 6 10 25 14 25 6z m-1530 -36 c8 -5 11 -10 5 -10 -5
0 -17 5 -25 10 -8 5 -10 10 -5 10 6 0 17 -5 25 -10z m4900 -4 c0 -2 -7 -7 -16
-10 -8 -3 -12 -2 -9 4 6 10 25 14 25 6z m-4797 -13 c-7 -2 -21 -2 -30 0 -10 3
-4 5 12 5 17 0 24 -2 18 -5z m50 0 c-7 -2 -19 -2 -25 0 -7 3 -2 5 12 5 14 0
19 -2 13 -5z m1804 -9 c-3 -3 -12 -4 -19 -1 -8 3 -5 6 6 6 11 1 17 -2 13 -5z
m-177 -14 c0 -5 -4 -10 -10 -10 -5 0 -10 5 -10 10 0 6 5 10 10 10 6 0 10 -4
10 -10z m97 4 c-3 -3 -12 -4 -19 -1 -8 3 -5 6 6 6 11 1 17 -2 13 -5z m700 0
c-3 -3 -12 -4 -19 -1 -8 3 -5 6 6 6 11 1 17 -2 13 -5z m313 2 c0 -2 -7 -7 -16
-10 -8 -3 -12 -2 -9 4 6 10 25 14 25 6z m-2629 -44 c-7 -2 -18 1 -23 6 -8 8
-4 9 13 5 13 -4 18 -8 10 -11z m176 12 c-3 -3 -12 -4 -19 -1 -8 3 -5 6 6 6 11
1 17 -2 13 -5z m-87 -14 c0 -5 -5 -10 -11 -10 -5 0 -7 5 -4 10 3 6 8 10 11 10
2 0 4 -4 4 -10z m54 1 c3 -5 0 -11 -7 -14 -8 -3 -14 1 -14 9 0 16 13 19 21 5z
m43 -7 c-3 -3 -12 -4 -19 -1 -8 3 -5 6 6 6 11 1 17 -2 13 -5z m4233 -4 c-8 -5
-22 -9 -30 -9 -10 0 -8 3 5 9 27 12 43 12 25 0z m-313 -96 c-3 -3 -12 -4 -19
-1 -8 3 -5 6 6 6 11 1 17 -2 13 -5z m-3567 -14 c0 -5 -7 -7 -15 -4 -8 4 -15 8
-15 10 0 2 7 4 15 4 8 0 15 -4 15 -10z m2747 -156 c-3 -3 -12 -4 -19 -1 -8 3
-5 6 6 6 11 1 17 -2 13 -5z m-1030 -40 c-3 -3 -12 -4 -19 -1 -8 3 -5 6 6 6 11
1 17 -2 13 -5z"/>
<path d="M17393 12159 c-2 -23 3 -25 10 -4 4 8 3 16 -1 19 -4 3 -9 -4 -9 -15z"/>
<path d="M13667 10839 c7 -7 15 -10 18 -7 3 3 -2 9 -12 12 -14 6 -15 5 -6 -5z"/>
<path d="M18816 14625 c-3 -10 -4 -20 -1 -23 3 -3 5 1 5 9 0 11 2 11 10 -1 14
-21 12 -33 -2 -24 -7 4 -4 -2 6 -14 11 -12 14 -22 8 -22 -7 0 -12 -4 -12 -10
0 -17 14 -11 28 11 8 12 9 18 3 14 -6 -3 -11 2 -11 12 -1 10 -7 29 -14 42 -12
21 -14 21 -20 6z"/>
<path d="M20486 14585 c-3 -9 -5 -31 -5 -48 1 -27 3 -24 9 13 8 48 6 61 -4 35z"/>
<path d="M18880 14394 c0 -16 5 -36 10 -44 6 -10 7 -2 3 25 -7 49 -13 58 -13
19z"/>
<path d="M17691 14394 c0 -11 3 -14 6 -6 3 7 2 16 -1 19 -3 4 -6 -2 -5 -13z"/>
<path d="M18915 14339 c-4 -6 -5 -12 -2 -15 2 -3 7 2 10 11 7 17 1 20 -8 4z"/>
<path d="M17700 14309 c0 -5 5 -7 10 -4 6 3 10 8 10 11 0 2 -4 4 -10 4 -5 0
-10 -5 -10 -11z"/>
<path d="M18895 14300 c3 -14 7 -30 7 -37 1 -7 5 -10 10 -7 4 3 8 -8 8 -25 0
-16 4 -32 9 -35 13 -8 -4 65 -24 99 -15 27 -16 27 -10 5z"/>
<path d="M18929 14111 c2 -20 6 -29 9 -21 3 8 10 18 16 22 7 5 7 8 -3 8 -7 0
-11 6 -8 13 3 8 0 14 -7 14 -7 0 -10 -13 -7 -36z"/>
<path d="M19029 14038 c-5 -16 -4 -46 2 -42 4 2 7 13 6 24 -1 17 -5 26 -8 18z"/>
<path d="M18990 14011 c0 -6 5 -13 10 -16 6 -3 10 1 10 9 0 9 -4 16 -10 16 -5
0 -10 -4 -10 -9z"/>
<path d="M18960 13955 c-8 -45 -8 -47 2 -37 5 5 8 18 5 28 -3 11 -6 15 -7 9z"/>
<path d="M17763 13934 c-3 -8 -2 -19 3 -24 5 -5 9 1 9 16 0 28 -3 30 -12 8z"/>
<path d="M19007 13893 c-10 -10 -8 -75 2 -69 4 3 6 17 3 32 -3 16 1 29 9 35 8
5 9 9 3 9 -6 0 -14 -3 -17 -7z"/>
<path d="M17781 13864 c0 -11 3 -14 6 -6 3 7 2 16 -1 19 -3 4 -6 -2 -5 -13z"/>
<path d="M17750 13819 c0 -23 3 -39 6 -36 11 10 13 67 3 73 -5 3 -9 -14 -9
-37z"/>
<path d="M18962 13810 c0 -14 4 -36 8 -50 7 -21 8 -22 10 -5 1 11 4 15 7 7 2
-6 9 -10 14 -6 16 9 10 24 -10 24 -14 0 -21 8 -24 28 -4 25 -4 25 -5 2z"/>
<path d="M18980 13801 c0 -10 50 -25 58 -16 3 3 0 5 -7 5 -7 0 -10 4 -7 8 2 4
-6 9 -20 10 -13 1 -24 -2 -24 -7z"/>
<path d="M18996 13725 c4 -8 8 -15 10 -15 2 0 4 7 4 15 0 8 -4 15 -10 15 -5 0
-7 -7 -4 -15z"/>
<path d="M17771 13714 c0 -11 3 -14 6 -6 3 7 2 16 -1 19 -3 4 -6 -2 -5 -13z"/>
<path d="M18988 13660 c3 -39 1 -60 -7 -60 -7 0 -8 -12 -4 -32 4 -22 3 -29 -5
-24 -7 4 -12 1 -12 -10 0 -14 3 -14 15 -4 19 16 22 13 30 -31 5 -29 4 -36 -9
-36 -10 0 -16 9 -16 26 0 19 -3 22 -12 13 -9 -9 -9 -17 0 -34 6 -13 13 -50 14
-82 2 -37 8 -61 16 -64 8 -2 12 7 11 30 -1 31 -1 31 -9 8 l-8 -25 -1 27 c-1
20 4 28 22 31 l22 4 -22 2 c-19 1 -23 6 -22 34 1 23 3 26 6 10 2 -13 8 -23 13
-23 5 0 7 6 4 14 -3 8 -1 23 4 32 7 12 5 28 -4 50 -9 21 -10 35 -4 39 6 4 7
11 3 18 -4 7 -9 4 -14 -9 -4 -10 -5 13 -2 52 3 39 1 79 -4 88 -6 12 -8 -2 -5
-44z"/>
<path d="M19010 13615 c0 -8 4 -15 10 -15 5 0 7 7 4 15 -4 8 -8 15 -10 15 -2
0 -4 -7 -4 -15z"/>
<path d="M6418 13523 c-16 -17 -25 -20 -34 -12 -7 6 -23 7 -36 3 -18 -6 -11
-11 47 -30 76 -26 87 -28 66 -15 -10 7 -7 9 12 8 18 -2 22 -5 16 -13 -14 -17
39 -33 76 -23 16 5 40 6 54 2 16 -4 22 -2 17 5 -4 6 -33 9 -74 7 -46 -3 -60
-1 -44 5 17 7 22 17 22 44 0 34 0 34 -51 38 -42 2 -54 -1 -71 -19z m40 -22
c10 -6 8 -10 -9 -14 -13 -4 -25 -4 -28 -2 -2 3 2 5 10 6 8 0 6 4 -6 9 l-20 9
20 0 c11 0 26 -3 33 -8z"/>
<path d="M6315 13524 c-19 -16 -19 -16 5 -9 31 9 50 25 30 25 -8 0 -24 -8 -35
-16z"/>
<path d="M17761 13448 c-17 -49 -26 -148 -13 -148 6 0 12 -6 15 -12 2 -7 3 -5
2 4 -2 10 1 21 6 24 12 7 12 24 0 24 -5 0 -12 -8 -14 -17 -3 -10 -5 0 -6 22 0
31 2 37 10 25 9 -12 10 -12 5 4 -9 25 4 86 16 83 6 -1 12 4 14 11 1 8 0 8 -3
1 -4 -8 -7 -8 -13 1 -5 8 -12 0 -19 -22z"/>
<path d="M6665 13450 c3 -5 8 -10 11 -10 2 0 4 5 4 10 0 6 -5 10 -11 10 -5 0
-7 -4 -4 -10z"/>
<path d="M6568 13429 c-16 -10 12 -17 52 -13 26 3 29 2 12 -4 -23 -7 -23 -7 7
-19 19 -7 33 -8 37 -2 3 5 9 7 14 4 5 -3 11 -1 15 5 3 5 -2 10 -11 10 -17 0
-17 1 0 13 14 10 7 12 -49 12 -37 0 -71 -3 -77 -6z"/>
<path d="M6690 13378 c3 -3 28 -15 55 -27 28 -11 42 -15 32 -7 -14 10 -15 15
-5 19 7 3 2 5 -12 5 -14 0 -36 4 -50 8 -14 4 -23 5 -20 2z"/>
<path d="M6808 13373 c-25 -7 -11 -32 15 -26 21 5 21 5 3 -9 -17 -14 -17 -15
-2 -21 11 -4 15 -3 11 4 -4 6 3 13 15 16 22 6 21 6 -6 20 -22 10 -24 12 -6 9
12 -2 20 0 16 5 -5 9 -17 10 -46 2z"/>
<path d="M18951 13343 c-1 -6 -4 -20 -7 -30 -5 -17 -5 -17 6 0 6 10 9 23 6 30
-3 9 -5 9 -5 0z"/>
<path d="M7069 13318 c-8 -25 -2 -47 13 -51 10 -3 18 -1 18 4 0 5 -5 9 -11 9
-5 0 -7 5 -4 10 3 6 1 10 -5 10 -6 0 -8 5 -5 10 3 6 4 10 1 10 -3 0 -6 -1 -7
-2z"/>
<path d="M6870 13306 c0 -12 41 -26 53 -19 6 4 18 8 25 9 8 2 17 5 20 9 4 3
-6 4 -22 1 -16 -3 -31 -7 -34 -10 -2 -3 -13 -1 -23 5 -11 5 -19 7 -19 5z"/>
<path d="M6964 13284 c-18 -14 -18 -15 4 -4 12 6 22 13 22 15 0 8 -5 6 -26
-11z"/>
<path d="M7034 13292 c4 -7 2 -12 -3 -12 -6 0 -11 -3 -11 -8 0 -10 60 -36 67
-28 3 3 -6 11 -20 17 -15 7 -24 15 -22 20 3 4 0 11 -6 15 -8 4 -9 3 -5 -4z"/>
<path d="M6995 13270 c3 -5 8 -10 11 -10 2 0 4 5 4 10 0 6 -5 10 -11 10 -5 0
-7 -4 -4 -10z"/>
<path d="M17708 13253 c7 -3 16 -2 19 1 4 3 -2 6 -13 5 -11 0 -14 -3 -6 -6z"/>
<path d="M17740 13241 c0 -25 6 -27 13 -6 4 8 2 17 -3 20 -6 4 -10 -3 -10 -14z"/>
<path d="M7015 13240 c28 -12 37 -12 30 0 -3 6 -16 10 -28 9 -21 0 -21 -1 -2
-9z"/>
<path d="M7070 13221 c0 -7 75 -41 93 -41 4 0 6 6 5 13 -2 7 6 11 22 9 22 -2
23 -1 8 8 -13 8 -24 8 -39 -1 -17 -8 -23 -8 -29 1 -4 7 -13 9 -19 6 -6 -4 -11
-2 -11 3 0 6 -7 11 -15 11 -8 0 -15 -4 -15 -9z"/>
<path d="M17757 13213 c-4 -3 -7 -13 -7 -22 1 -13 3 -13 11 2 11 19 8 33 -4
20z"/>
<path d="M7242 13196 c7 -8 15 -12 17 -11 5 6 -10 25 -20 25 -5 0 -4 -6 3 -14z"/>
<path d="M7180 13183 c0 -17 47 -43 65 -37 14 6 14 8 -1 25 -9 11 -22 19 -28
19 -6 0 -2 -7 8 -15 11 -8 16 -18 13 -22 -4 -3 -18 4 -32 17 -14 13 -25 19
-25 13z"/>
<path d="M17738 13158 c-4 -8 -2 -20 4 -26 6 -6 7 -18 3 -29 -5 -10 -8 -20 -7
-24 0 -3 -9 -11 -20 -18 -18 -11 -20 -11 -15 3 4 10 1 13 -7 10 -7 -3 -13 -11
-13 -19 0 -8 4 -12 8 -9 4 2 11 0 14 -6 5 -8 11 -8 19 -1 7 6 16 7 20 3 5 -4
7 0 5 8 -2 8 0 26 4 40 8 31 -6 93 -15 68z"/>
<path d="M7304 13148 c-4 -6 -3 -8 2 -5 6 3 16 2 24 -4 13 -7 13 -9 0 -10 -8
-1 -24 -1 -35 0 -14 0 -16 -1 -5 -6 8 -3 17 -9 20 -12 12 -16 57 -27 75 -20
16 6 14 8 -12 8 -17 1 -34 5 -37 10 -10 15 5 19 36 9 22 -8 33 -7 41 2 9 10 8
11 -8 6 -12 -3 -36 2 -57 14 -26 14 -39 16 -44 8z"/>
<path d="M17691 13114 c0 -11 3 -14 6 -6 3 7 2 16 -1 19 -3 4 -6 -2 -5 -13z"/>
<path d="M7407 13076 c-4 -9 -3 -15 2 -11 5 3 12 1 16 -5 3 -5 36 -24 73 -42
37 -18 70 -34 75 -36 4 -2 4 4 0 14 -5 13 -3 15 8 9 8 -5 5 2 -6 14 -16 19
-17 24 -5 32 18 12 -36 1 -62 -12 -28 -15 -30 -10 -6 14 13 12 16 16 7 9 -14
-11 -18 -11 -22 0 -4 8 -6 7 -6 -5 -1 -16 -3 -16 -30 -2 -16 8 -31 20 -33 27
-3 8 -7 6 -11 -6z m153 -66 c0 -6 -10 -5 -25 2 -13 6 -22 15 -19 19 6 11 44
-8 44 -21z"/>
<path d="M17726 13022 c-2 -4 -1 -14 4 -22 7 -11 9 -9 7 8 -1 24 -3 26 -11 14z"/>
<path d="M7711 12983 c6 -7 17 -13 23 -12 7 0 6 2 -2 6 -6 2 -10 8 -8 12 3 4
-1 8 -9 8 -11 0 -12 -4 -4 -14z"/>
<path d="M17683 12974 c1 -11 -2 -21 -7 -22 -17 -1 -24 -25 -13 -43 13 -21 29
-15 20 7 -3 9 -1 19 4 23 5 3 15 15 22 26 11 19 12 18 8 -7 -2 -15 0 -25 4
-22 12 7 11 41 -1 49 -6 3 -13 -2 -17 -11 -6 -16 -7 -16 -15 2 -7 18 -8 18 -5
-2z"/>
<path d="M7603 12965 c11 -7 26 -11 35 -8 10 4 14 2 10 -2 -5 -5 2 -13 15 -20
17 -8 25 -8 35 2 22 21 37 15 17 -7 -18 -20 -18 -21 0 -14 14 6 16 4 10 -7 -4
-8 -5 -11 0 -7 4 4 19 -1 32 -12 13 -10 31 -16 40 -13 12 5 14 3 8 -7 -5 -9
-4 -11 3 -6 8 5 9 13 2 25 -5 10 -7 21 -5 25 3 3 2 3 -2 0 -5 -3 -9 -10 -9
-15 -1 -5 -2 -12 -3 -15 0 -3 -14 4 -31 16 -17 12 -27 26 -24 35 9 21 -42 43
-59 26 -10 -11 -7 -12 13 -7 22 6 23 5 7 -4 -15 -10 -22 -8 -39 10 -16 17 -22
19 -29 8 -6 -10 -9 -10 -9 0 0 6 -8 12 -17 12 -17 -1 -17 -2 0 -15z"/>
<path d="M17655 12970 c3 -5 8 -10 11 -10 2 0 4 5 4 10 0 6 -5 10 -11 10 -5 0
-7 -4 -4 -10z"/>
<path d="M18881 12964 c0 -11 3 -14 6 -6 3 7 2 16 -1 19 -3 4 -6 -2 -5 -13z"/>
<path d="M18870 12925 c0 -15 18 -40 24 -34 3 3 -1 14 -9 25 -8 10 -14 15 -15
9z"/>
<path d="M17692 12895 c-8 -17 -8 -24 -2 -20 7 4 8 -3 4 -22 -9 -36 0 -28 13
13 14 40 1 64 -15 29z"/>
<path d="M7830 12900 c-9 -6 -10 -10 -3 -10 6 0 15 5 18 10 8 12 4 12 -15 0z"/>
<path d="M7880 12890 c-14 -4 -20 -8 -13 -9 6 -1 18 -3 26 -6 8 -4 14 0 14 10
0 8 -1 15 -1 14 -1 -1 -12 -5 -26 -9z"/>
<path d="M17650 12870 c23 -23 26 -46 8 -52 -7 -3 -2 -7 11 -11 17 -4 21 -2
17 10 -3 8 -6 21 -6 28 0 15 -27 45 -41 45 -5 0 0 -9 11 -20z"/>
<path d="M7834 12871 c4 -6 1 -11 -6 -11 -8 0 -6 -5 5 -11 10 -6 25 -8 33 -5
8 3 13 2 10 -3 -3 -5 1 -14 9 -21 8 -7 15 -9 15 -6 0 4 12 -1 28 -12 40 -29
95 -55 87 -43 -3 7 -21 18 -38 26 -18 8 -22 12 -10 9 20 -4 103 29 103 42 0 2
-8 0 -19 -5 -10 -6 -21 -8 -23 -5 -3 2 -11 -2 -18 -11 -13 -16 -35 -21 -26 -6
3 4 -6 6 -19 3 -14 -2 -33 -1 -42 3 -10 5 -21 7 -25 7 -5 -1 -8 3 -8 8 0 6 6
10 12 10 16 0 -21 25 -51 35 -16 5 -21 4 -17 -4z"/>
<path d="M17607 12816 c-4 -11 -3 -15 4 -10 8 4 9 -1 5 -17 -6 -20 -5 -21 4
-6 7 10 8 23 2 33 -8 15 -10 15 -15 0z"/>
<path d="M8030 12794 c-14 -8 -18 -13 -9 -11 12 4 15 -1 13 -18 -1 -17 2 -22
12 -18 7 3 13 8 12 11 0 4 1 9 2 12 6 17 7 40 2 40 -4 -1 -18 -8 -32 -16z"/>
<path d="M17664 12771 c3 -13 1 -33 -5 -43 -5 -10 -7 -18 -4 -18 9 0 37 71 31
78 -3 3 -6 -1 -6 -9 0 -12 -2 -11 -11 1 -8 12 -10 10 -5 -9z"/>
<path d="M8119 12753 c-1 -5 -1 -12 0 -17 1 -5 -5 -6 -14 -2 -9 3 -13 2 -10
-4 3 -6 1 -10 -4 -10 -6 0 -11 4 -11 8 0 5 -7 9 -15 9 -24 0 -18 -6 43 -36 31
-16 75 -39 98 -52 86 -50 91 -52 59 -25 -33 28 -30 32 9 15 20 -10 29 -9 43 2
15 12 16 12 10 -3 -3 -10 -2 -18 3 -18 6 0 10 9 10 20 0 22 -35 28 -43 8 -4
-10 -6 -10 -6 0 -1 6 -10 12 -22 12 -13 0 -18 4 -14 13 4 6 0 4 -8 -5 -15 -19
-37 -24 -37 -9 0 5 -9 11 -20 14 -11 3 -20 13 -20 22 0 13 -6 16 -25 13 -14
-3 -28 -1 -31 3 -5 8 10 13 29 10 4 0 7 6 7 14 0 9 -6 12 -17 8 -11 -4 -14 -3
-9 5 4 7 5 12 2 12 -3 0 -7 -3 -7 -7z"/>
<path d="M8210 12712 c0 -6 -8 -13 -17 -15 -16 -4 -16 -5 -1 -6 18 -1 34 16
24 26 -3 4 -6 1 -6 -5z"/>
<path d="M8366 12672 c-2 -4 4 -8 14 -8 10 0 16 4 14 8 -3 4 -9 8 -14 8 -5 0
-11 -4 -14 -8z"/>
<path d="M17577 12664 c-9 -10 18 -54 31 -49 6 2 12 -1 12 -9 0 -20 -12 -27
-27 -15 -10 9 -13 8 -13 -5 0 -9 7 -16 15 -16 18 0 20 -17 4 -22 -7 -2 -10
-11 -7 -18 7 -22 36 39 34 73 -1 15 2 27 6 27 4 0 6 9 5 20 -1 20 -2 20 -18
-1 -10 -13 -19 -18 -23 -11 -3 6 -1 12 6 14 8 3 6 6 -4 10 -9 4 -18 4 -21 2z"/>
<path d="M8356 12613 c-12 -13 -6 -25 7 -14 8 6 16 8 19 5 3 -3 8 -1 11 3 6
10 -28 15 -37 6z"/>
<path d="M8305 12600 c3 -5 16 -15 28 -21 22 -12 22 -12 3 10 -19 21 -43 30
-31 11z"/>
<path d="M8366 12573 c-6 -14 -5 -15 5 -6 7 7 10 15 7 18 -3 3 -9 -2 -12 -12z"/>
<path d="M8396 12565 c-16 -12 -14 -14 19 -25 22 -7 33 -16 28 -23 -3 -7 -2
-8 2 -4 16 14 14 36 -3 30 -15 -4 -15 -3 1 10 9 8 17 16 17 18 0 10 -48 5 -64
-6z m29 -5 c-3 -5 -11 -10 -16 -10 -6 0 -7 5 -4 10 3 6 11 10 16 10 6 0 7 -4
4 -10z"/>
<path d="M8507 12504 c4 -10 0 -13 -13 -8 -11 4 1 -7 26 -23 37 -24 47 -27 58
-16 7 7 18 13 23 13 6 0 3 -7 -5 -16 -20 -20 -20 -25 -1 -17 10 3 15 0 13 -8
-2 -8 7 -14 22 -16 21 -2 22 -1 5 5 -20 7 -28 52 -12 68 11 12 8 21 -7 21 -8
0 -12 -6 -9 -15 5 -11 1 -13 -16 -7 -12 4 -28 2 -36 -5 -8 -6 -20 -8 -26 -4
-9 5 -8 9 5 14 16 5 15 7 -8 18 -21 9 -24 9 -19 -4z m73 -34 c-8 -5 -19 -10
-25 -10 -5 0 -3 5 5 10 8 5 20 10 25 10 6 0 3 -5 -5 -10z"/>
<path d="M16374 12456 c-9 -24 4 -49 22 -42 9 3 27 6 40 6 17 0 24 6 24 20 0
14 -7 20 -24 20 -13 0 -31 3 -40 6 -10 4 -18 0 -22 -10z"/>
<path d="M17552 12436 c-15 -33 -2 -42 15 -10 15 31 16 34 5 34 -5 0 -14 -11
-20 -24z"/>
<path d="M8678 12413 c-9 -18 -2 -36 15 -39 9 -1 17 1 17 4 -1 13 -28 43 -32
35z"/>
<path d="M8725 12409 c4 -5 20 -9 36 -9 39 0 29 17 -11 18 -17 0 -28 -4 -25
-9z"/>
<path d="M19990 12404 c0 -6 7 -19 16 -30 14 -18 14 -18 3 6 -14 31 -19 36
-19 24z"/>
<path d="M8745 12380 c28 -12 45 -12 45 0 0 6 -15 10 -32 9 -28 0 -30 -2 -13
-9z"/>
<path d="M16134 12376 c-9 -24 4 -49 22 -42 9 3 27 6 40 6 17 0 24 6 24 20 0
14 -7 20 -24 20 -13 0 -31 3 -40 6 -10 4 -18 0 -22 -10z"/>
<path d="M8725 12360 c3 -5 11 -10 16 -10 6 0 7 5 4 10 -3 6 -11 10 -16 10 -6
0 -7 -4 -4 -10z"/>
<path d="M8765 12350 c3 -5 1 -10 -6 -10 -16 0 -5 -11 14 -14 8 -1 22 -8 31
-15 9 -7 16 -10 16 -5 0 5 4 4 8 -3 5 -8 12 -8 26 3 12 8 15 14 7 14 -10 0
-11 3 -3 13 9 10 4 13 -19 12 -35 0 -37 -8 -6 -24 22 -11 22 -11 -3 -5 -14 3
-32 14 -42 25 -17 20 -34 26 -23 9z"/>
<path d="M8880 12332 c0 -11 8 -26 18 -35 20 -19 52 -23 52 -7 0 6 -11 10 -25
10 -20 0 -25 5 -25 25 0 14 -4 25 -10 25 -5 0 -10 -8 -10 -18z"/>
<path d="M8912 12329 c2 -7 10 -15 17 -17 8 -3 12 1 9 9 -2 7 -10 15 -17 17
-8 3 -12 -1 -9 -9z"/>
<path d="M15894 12296 c-9 -24 4 -49 22 -42 9 3 27 6 40 6 17 0 24 6 24 20 0
14 -7 20 -24 20 -13 0 -31 3 -40 6 -10 4 -18 0 -22 -10z"/>
<path d="M8851 12287 c2 -1 12 -9 22 -16 14 -12 17 -11 17 3 0 10 -8 16 -22
16 -12 0 -19 -1 -17 -3z"/>
<path d="M8905 12260 c-3 -5 4 -14 16 -20 27 -15 30 -10 8 12 -10 10 -21 13
-24 8z"/>
<path d="M8965 12250 c-3 -5 -1 -10 4 -10 6 0 11 5 11 10 0 6 -2 10 -4 10 -3
0 -8 -4 -11 -10z"/>
<path d="M8978 12236 c-23 -17 -23 -27 -1 -19 11 4 14 3 9 -5 -5 -8 -1 -10 10
-5 13 5 15 3 9 -8 -5 -8 -4 -11 0 -6 15 13 14 36 -1 30 -10 -4 -12 0 -8 11 7
19 4 20 -18 2z"/>
<path d="M10134 12216 c-9 -24 4 -49 22 -42 9 3 27 6 40 6 17 0 24 6 24 20 0
14 -7 20 -24 20 -13 0 -31 3 -40 6 -10 4 -18 0 -22 -10z"/>
<path d="M9075 12180 c-3 -5 -13 -7 -23 -4 -14 5 -14 4 -3 -4 15 -11 41 -5 41
9 0 12 -7 11 -15 -1z"/>
<path d="M9127 12179 c7 -7 15 -10 18 -7 3 3 -2 9 -12 12 -14 6 -15 5 -6 -5z"/>
<path d="M9106 12158 c5 -8 1 -9 -12 -4 -14 5 -16 4 -8 -4 12 -12 47 -3 38 11
-3 5 -10 9 -15 9 -6 0 -7 -5 -3 -12z"/>
<path d="M9145 12150 c-16 -11 -25 -20 -18 -20 6 0 15 5 18 11 4 6 13 8 19 6
7 -3 13 1 13 9 0 8 -1 14 -1 14 -1 0 -14 -9 -31 -20z"/>
<path d="M10454 12136 c-9 -24 4 -49 22 -42 9 3 27 6 40 6 17 0 24 6 24 20 0
14 -7 20 -24 20 -13 0 -31 3 -40 6 -10 4 -18 0 -22 -10z"/>
<path d="M15334 12136 c-9 -24 4 -49 22 -42 9 3 27 6 40 6 17 0 24 6 24 20 0
14 -7 20 -24 20 -13 0 -31 3 -40 6 -10 4 -18 0 -22 -10z"/>
<path d="M9150 12121 c0 -6 4 -12 8 -15 5 -3 9 1 9 9 0 8 -4 15 -9 15 -4 0 -8
-4 -8 -9z"/>
<path d="M9193 12114 c4 -7 3 -14 -4 -16 -6 -2 0 -9 13 -15 26 -12 59 -1 44
14 -5 4 -11 2 -14 -6 -3 -10 -10 -7 -26 11 -11 13 -17 19 -13 12z"/>
<path d="M9265 12100 c-3 -5 1 -10 9 -10 8 0 18 -5 22 -11 4 -8 0 -9 -15 -4
-24 7 -44 -2 -35 -17 4 -6 10 -5 15 3 5 9 9 9 9 3 0 -7 11 -19 23 -27 20 -13
24 -13 24 -1 0 8 -7 14 -16 14 -13 0 -13 2 -2 9 7 5 10 14 7 20 -9 14 -5 14
31 0 23 -8 26 -8 15 3 -7 7 -23 13 -35 13 -13 1 -28 4 -34 8 -7 4 -14 3 -18
-3z"/>
<path d="M17361 12081 c-6 -11 -8 -27 -5 -35 4 -10 -2 -19 -18 -26 -28 -13
-72 -77 -58 -85 14 -8 -11 -44 -26 -38 -6 2 -15 -1 -20 -8 -5 -8 -3 -10 7 -4
12 8 12 6 0 -8 -7 -9 -10 -17 -7 -17 4 0 2 -9 -4 -21 -7 -12 -18 -18 -26 -15
-16 6 -19 -9 -4 -19 15 -9 110 127 104 148 -4 12 2 26 15 38 12 11 21 15 21
10 0 -6 -7 -14 -16 -19 -9 -5 -15 -15 -12 -22 2 -7 18 9 35 36 24 36 29 52 21
61 -8 10 -7 12 6 7 10 -4 16 -1 16 9 0 25 -18 29 -29 8z"/>
<path d="M10774 12056 c-9 -24 4 -49 22 -42 9 3 27 6 40 6 17 0 24 6 24 20 0
14 -7 20 -24 20 -13 0 -31 3 -40 6 -10 4 -18 0 -22 -10z"/>
<path d="M14934 12056 c-9 -24 4 -49 22 -42 9 3 27 6 40 6 17 0 24 6 24 20 0
14 -7 20 -24 20 -13 0 -31 3 -40 6 -10 4 -18 0 -22 -10z"/>
<path d="M9427 12034 c-10 -11 3 -24 23 -24 10 0 25 -7 34 -15 9 -9 17 -11 21
-5 3 5 1 10 -5 10 -6 0 -8 5 -5 11 4 6 1 10 -6 8 -32 -4 -60 2 -54 11 7 11 2
13 -8 4z"/>
<path d="M9390 12019 c0 -6 -9 -8 -21 -4 -19 6 -20 5 -8 -8 8 -8 17 -13 21
-11 3 2 8 1 10 -4 5 -12 95 -62 111 -62 8 0 20 -7 27 -15 23 -28 180 -99 165
-75 -3 5 5 8 17 6 13 -1 24 -6 25 -12 1 -5 -5 -8 -13 -6 -23 5 -17 -4 24 -32
47 -32 50 -32 63 1 15 40 -7 56 -80 58 -34 1 -64 4 -67 8 -3 3 -12 3 -18 1 -7
-3 -19 2 -26 11 -14 17 0 21 17 4 8 -8 13 -8 18 0 10 17 -5 51 -23 51 -13 0
-13 -2 4 -15 18 -15 17 -16 -15 -9 -23 4 -31 3 -27 -5 4 -6 1 -11 -8 -11 -10
0 -13 6 -10 15 4 10 0 15 -15 15 -12 0 -21 5 -21 10 0 6 -7 10 -16 10 -9 0
-23 8 -31 18 -10 12 -16 14 -19 4 -3 -6 -10 -9 -15 -6 -6 4 -6 11 1 19 8 9 7
14 -4 18 -10 4 -13 1 -9 -9 4 -10 0 -12 -13 -7 -27 10 -41 26 -36 41 2 6 1 12
-2 12 -3 0 -6 -5 -6 -11z m408 -192 c7 -8 6 -18 -4 -31 -8 -11 -14 -14 -14 -8
0 7 -7 12 -15 12 -8 0 -15 5 -15 10 0 14 13 13 28 -2 9 -9 12 -8 12 4 0 9 -6
19 -12 21 -8 4 -9 6 -2 6 6 1 16 -5 22 -12z"/>
<path d="M11254 11976 c-9 -24 4 -49 22 -42 9 3 27 6 40 6 17 0 24 6 24 20 0
14 -7 20 -24 20 -13 0 -31 3 -40 6 -10 4 -18 0 -22 -10z"/>
<path d="M14534 11976 c-9 -24 4 -49 22 -42 9 3 27 6 40 6 17 0 24 6 24 20 0
14 -7 20 -24 20 -13 0 -31 3 -40 6 -10 4 -18 0 -22 -10z"/>
<path d="M9577 11933 c3 -7 9 -13 13 -13 4 0 12 6 18 13 8 9 5 12 -13 12 -14
0 -21 -5 -18 -12z"/>
<path d="M11814 11896 c-9 -24 4 -49 22 -42 9 3 27 6 40 6 17 0 24 6 24 20 0
14 -7 20 -24 20 -13 0 -31 3 -40 6 -10 4 -18 0 -22 -10z"/>
<path d="M13894 11896 c-9 -24 4 -49 22 -42 9 3 45 6 80 6 57 0 64 2 64 20 0
18 -7 20 -64 20 -35 0 -71 3 -80 6 -10 4 -18 0 -22 -10z"/>
<path d="M9967 11693 c-9 -15 17 -23 34 -11 11 8 11 9 -3 5 -9 -3 -18 -1 -21
6 -2 8 -5 8 -10 0z"/>
<path d="M10372 11538 c-15 -15 -64 -17 -75 -3 -5 6 -7 4 -4 -5 2 -8 12 -14
22 -12 10 2 14 -1 10 -7 -3 -6 -2 -11 4 -11 5 0 13 5 16 10 3 6 12 10 18 10 7
0 6 -4 -3 -10 -8 -5 -11 -13 -6 -17 5 -4 11 -3 13 3 5 13 63 -4 63 -19 0 -4
-9 -3 -21 3 -39 21 -28 5 13 -19 34 -19 40 -20 35 -6 -4 9 -7 23 -7 30 0 7
-15 17 -32 20 -45 10 -51 15 -37 31 14 17 8 19 -9 2z"/>
<path d="M14028 10873 c7 -3 16 -2 19 1 4 3 -2 6 -13 5 -11 0 -14 -3 -6 -6z"/>
<path d="M15050 10840 c0 -5 5 -10 10 -10 6 0 10 5 10 10 0 6 -4 10 -10 10 -5
0 -10 -4 -10 -10z"/>
</g>
</svg>
